<svg width="165" height="69" viewBox="0 0 165 69" fill="none" xmlns="http://www.w3.org/2000/svg">
<path d="M100.462 58.1346L98.9199 55.7556L104.56 48.422L164.337 15.4734L109.459 55.9766L100.462 58.1346Z" fill="url(#paint0_linear_3201_6435)"/>
<path d="M99.9329 57.3197L99.4473 56.5705L105.117 49.2817L164.336 15.4734L108.901 55.1158L99.9329 57.3197Z" fill="url(#paint1_linear_3201_6435)"/>
<path d="M106.326 53.7311L105.326 52.19L106.448 49.0804L140.251 31.0858L109.622 53.975L106.326 53.7311Z" fill="#E6E6E6" stroke="#333333" stroke-width="0.134533" stroke-miterlimit="10"/>
<path d="M101.59 61.7524C102.433 57.8007 99.9131 53.9139 95.9614 53.071C92.0096 52.2282 88.1229 54.7484 87.28 58.7002C86.4372 62.6519 88.9574 66.5387 92.9091 67.3815C96.8609 68.2244 100.748 65.7041 101.59 61.7524Z" fill="url(#paint2_linear_3201_6435)"/>
<path d="M90.032 55.5971L88.5106 57.9891L79.4947 55.9099L0 0L84.328 48.3115L90.032 55.5971Z" fill="url(#paint3_linear_3201_6435)"/>
<path d="M89.5102 56.4163L89.0312 57.1699L80.0448 55.0447L0 0L83.7778 49.1767L89.5102 56.4163Z" fill="url(#paint4_linear_3201_6435)"/>
<path d="M83.528 52.1889L82.6618 53.5507L79.4975 53.6185L36.1758 23.0204L82.2494 49.2937L83.528 52.1889Z" fill="white" stroke="#333333" stroke-width="0.125783" stroke-miterlimit="10"/>
<path d="M97.1907 65.7494C100.243 64.2233 101.481 60.5114 99.9551 57.4586C98.429 54.4058 94.7171 53.1681 91.6643 54.6942C88.6115 56.2203 87.3738 59.9322 88.8999 62.985C90.426 66.0378 94.1379 67.2755 97.1907 65.7494Z" fill="url(#paint5_linear_3201_6435)"/>
<path d="M96.5382 62.1469C97.6186 60.9863 97.5536 59.1695 96.393 58.0891C95.2323 57.0087 93.4156 57.0737 92.3352 58.2344C91.2548 59.395 91.3198 61.2117 92.4804 62.2921C93.6411 63.3726 95.4578 63.3075 96.5382 62.1469Z" fill="url(#paint6_linear_3201_6435)"/>
<path d="M96.0361 60.9065C96.4307 60.0189 96.0311 58.9795 95.1435 58.5849C94.256 58.1903 93.2166 58.5899 92.8219 59.4774C92.4273 60.365 92.8269 61.4044 93.7145 61.7991C94.6021 62.1937 95.6415 61.7941 96.0361 60.9065Z" fill="#1A1A1A"/>
<defs>
<linearGradient id="paint0_linear_3201_6435" x1="129.452" y1="32.2745" x2="134.351" y2="39.8302" gradientUnits="userSpaceOnUse">
<stop stop-color="white"/>
<stop offset="1"/>
</linearGradient>
<linearGradient id="paint1_linear_3201_6435" x1="165.025" y1="14.5745" x2="97.1117" y2="58.6105" gradientUnits="userSpaceOnUse">
<stop stop-color="white"/>
<stop offset="0.74" stop-color="#626262"/>
<stop offset="0.79" stop-color="#666666"/>
<stop offset="0.84" stop-color="#757575"/>
<stop offset="0.89" stop-color="#8C8C8C"/>
<stop offset="0.95" stop-color="#ADADAD"/>
<stop offset="1" stop-color="#CECECE"/>
</linearGradient>
<linearGradient id="paint2_linear_3201_6435" x1="100.741" y1="56.1359" x2="87.8018" y2="64.5257" gradientUnits="userSpaceOnUse">
<stop stop-color="white"/>
<stop offset="0.74" stop-color="#626262"/>
<stop offset="0.79" stop-color="#666666"/>
<stop offset="0.84" stop-color="#757575"/>
<stop offset="0.89" stop-color="#8C8C8C"/>
<stop offset="0.95" stop-color="#ADADAD"/>
<stop offset="1" stop-color="#CECECE"/>
</linearGradient>
<linearGradient id="paint3_linear_3201_6435" x1="42.2141" y1="32.2122" x2="47.0484" y2="24.615" gradientUnits="userSpaceOnUse">
<stop/>
<stop offset="1" stop-color="white"/>
</linearGradient>
<linearGradient id="paint4_linear_3201_6435" x1="-1.25139" y1="-0.782462" x2="92.8202" y2="59.0786" gradientUnits="userSpaceOnUse">
<stop stop-color="white"/>
<stop offset="0.74" stop-color="#626262"/>
<stop offset="0.79" stop-color="#666666"/>
<stop offset="0.84" stop-color="#757575"/>
<stop offset="0.89" stop-color="#8C8C8C"/>
<stop offset="0.95" stop-color="#ADADAD"/>
<stop offset="1" stop-color="#CECECE"/>
</linearGradient>
<linearGradient id="paint5_linear_3201_6435" x1="87.4437" y1="56.0796" x2="98.3735" y2="63.0319" gradientUnits="userSpaceOnUse">
<stop stop-color="white"/>
<stop offset="0.74" stop-color="#626262"/>
<stop offset="0.79" stop-color="#666666"/>
<stop offset="0.84" stop-color="#757575"/>
<stop offset="0.89" stop-color="#8C8C8C"/>
<stop offset="0.95" stop-color="#ADADAD"/>
<stop offset="1" stop-color="#CECECE"/>
</linearGradient>
<linearGradient id="paint6_linear_3201_6435" x1="90.6252" y1="58.1406" x2="95.6991" y2="61.3694" gradientUnits="userSpaceOnUse">
<stop stop-color="white"/>
<stop offset="0.74" stop-color="#626262"/>
<stop offset="0.79" stop-color="#666666"/>
<stop offset="0.84" stop-color="#757575"/>
<stop offset="0.89" stop-color="#8C8C8C"/>
<stop offset="0.95" stop-color="#ADADAD"/>
<stop offset="1" stop-color="#CECECE"/>
</linearGradient>
</defs>
</svg>
