<svg width="19" height="19" viewBox="0 0 19 19" fill="none" xmlns="http://www.w3.org/2000/svg">
<path d="M2.154 18.667C1.54022 18.667 1.02778 18.4615 0.616667 18.0503C0.205556 17.6392 0 17.1268 0 16.513V13.2823H1.33333V16.513C1.33333 16.7183 1.41878 16.9065 1.58967 17.0773C1.76056 17.2482 1.94867 17.3337 2.154 17.3337H16.5127C16.718 17.3337 16.9061 17.2482 17.077 17.0773C17.2479 16.9065 17.3333 16.7183 17.3333 16.513V13.2823H18.6667V16.513C18.6667 17.1268 18.4611 17.6392 18.05 18.0503C17.6389 18.4615 17.1264 18.667 16.5127 18.667H2.154Z" fill="#1C1B1F"/>
<path d="M10.0034 11.5333L10.0034 -4.16888e-06L8.67002 -4.28544e-06L8.67002 11.5333L5.56236 8.42566L4.61869 9.38466L9.33669 14.1027L14.0547 9.38466L13.111 8.42566L10.0034 11.5333Z" fill="#1C1B1F"/>
</svg>
