<svg width="148" height="66" viewBox="0 0 148 66" fill="none" xmlns="http://www.w3.org/2000/svg">
<path d="M80.3526 65.2847C79.2316 65.2847 78.1106 65.1246 77.1497 64.8043C76.2689 64.404 75.228 63.6833 74.9077 62.4822C76.1088 63.4431 77.47 63.9235 79.6319 63.8435C93.6444 63.8435 103.573 43.8257 111.02 31.9751C113.022 28.7723 115.184 25.089 117.746 21.4057H113.262L114.143 20.2847H118.547C123.511 13.2385 129.516 6.59257 136.963 4.35057C137.844 4.03029 139.205 3.87015 140.646 3.87015C141.927 3.87015 143.289 4.03029 144.329 4.43065C145.29 4.831 146.251 5.55164 146.651 6.75271C145.45 5.79185 144.009 5.3915 141.847 5.3915C133.44 5.3915 127.354 13.4787 122.95 20.2847H129.116L128.235 21.4057H122.23C119.908 24.9289 117.826 28.5321 114.543 33.7367C108.858 42.5445 96.8472 60.8808 84.1159 64.7242C83.2351 65.0445 81.7938 65.2847 80.3526 65.2847Z" fill="white"/>
<path d="M82.3181 45.9075C79.7558 45.9075 78.7949 44.6264 78.7949 42.7848C78.7949 40.9431 79.6757 38.7011 80.8768 36.5392C83.8394 31.4146 88.7237 25.8897 92.0067 22.6869C94.9693 19.7243 99.0529 19.1638 99.0529 19.1638C96.6508 21.8061 92.2469 27.1709 88.2433 32.6958C87.4426 33.8168 82.9586 40.3026 82.9586 42.6246C82.9586 43.1851 83.1988 43.5054 83.9195 43.4253C86.722 43.1851 93.6882 34.4574 96.7309 30.8542C98.4924 28.8524 101.695 24.6887 104.017 22.0463C106.5 19.1638 110.343 19.1638 110.343 19.1638C108.661 21.3257 98.8928 32.7759 96.0102 40.783C95.6099 41.7438 95.4497 42.4645 95.4497 43.025C95.4497 44.0659 96.0903 44.3862 96.7309 44.3862C99.6935 44.3862 104.738 38.1406 105.699 37.0196C105.939 37.0196 106.019 37.2598 106.019 37.5001C106.019 37.9004 105.939 38.3008 105.699 38.6211C103.217 41.5036 99.0529 45.9075 95.4497 45.9075C92.8074 45.9075 91.8465 44.4663 91.8465 42.5445C91.8465 40.7029 92.7273 38.3808 93.7682 36.4591C91.286 39.0214 86.1615 45.9075 82.3181 45.9075Z" fill="white"/>
<path d="M57.1321 45.9876C55.2104 45.9876 54.1694 44.7865 54.1694 42.6246C54.1694 40.0623 55.6107 36.379 58.6534 32.3755C62.8171 27.0908 71.705 19.0036 78.9114 19.0036C80.5128 19.0036 80.9933 19.6441 81.2335 20.1246C81.4737 20.5249 81.1534 20.7651 80.9933 20.6851C80.8331 20.605 80.1926 20.5249 79.7121 20.5249C75.8687 20.5249 70.1837 24.6086 65.0591 30.4538C61.4559 34.5374 58.9737 38.7011 58.2531 41.2634C58.173 41.5836 58.0929 41.984 58.0929 42.3844C58.0929 43.0249 58.3331 43.5054 58.9737 43.5054C59.6943 43.5054 60.9755 42.9449 62.9773 41.1833C69.383 35.7384 75.7086 24.9288 81.1534 21.4057C84.5164 19.1637 85.4773 19.2438 86.358 19.1637C85.4773 20.2046 81.0734 25.8096 79.2317 28.3719C76.2691 32.6157 72.3456 38.1406 71.3847 40.863C71.1445 41.6637 70.9844 42.3043 70.9844 42.8648C70.9844 43.7456 71.3847 44.1459 72.0253 44.1459C72.9862 44.1459 74.4274 43.2651 75.7887 42.1441C77.5502 40.7029 79.0716 39.1014 80.8331 37.0196C81.0733 37.0196 81.1534 37.2598 81.1534 37.5C81.1534 37.9004 81.0733 38.3007 80.8331 38.621C79.4719 40.2224 77.31 42.3844 75.3883 43.8256C73.947 45.0267 72.0253 45.9876 70.3438 45.9876C67.8616 45.9876 67.0609 44.7064 67.0609 42.8648C67.0609 40.7829 68.1819 38.0605 69.383 35.8185C67.9417 37.5801 65.5395 40.3025 63.858 41.9039C61.536 44.0659 59.4541 45.9876 57.1321 45.9876Z" fill="white"/>
<path d="M44.3176 46.2277C41.6752 46.2277 40.7144 44.7865 40.7144 42.7847C40.7144 41.0231 41.435 38.8612 42.6361 36.7793C44.798 33.016 50.0827 26.8505 55.1272 21.4057H49.7624L50.6432 20.2847H56.1681C59.1307 17.1619 61.8531 14.3594 63.6147 12.5978C68.2588 7.95371 72.5026 5.39143 74.9048 5.39143C72.2624 7.7135 65.6165 14.2793 60.0916 20.2847H65.6165L64.7357 21.4057H59.1307C57.0489 23.7277 55.2873 25.8096 54.0062 27.5711C48.9617 34.4573 45.8389 38.701 44.8781 40.943C44.4777 41.9039 44.3176 42.6245 44.3176 43.185C44.3176 44.226 44.8781 44.7064 45.7588 44.7064C46.4795 44.7064 47.3603 44.4662 48.3211 43.9057C50.9635 42.4644 53.9261 39.1014 55.6877 37.0196C55.9279 37.0196 56.008 37.2598 56.008 37.5C56.008 37.9003 55.9279 38.3007 55.6877 38.621C51.604 43.3452 48.3211 46.2277 44.3176 46.2277Z" fill="white"/>
<path d="M22.4748 58.8791C17.0299 58.8791 12.1456 55.5962 11.0246 49.5108C4.53883 47.7492 1.81641 42.4645 1.81641 36.0588C1.81641 23.888 11.4249 8.11395 25.3573 8.11395C31.9232 8.11395 34.3253 13.5588 34.3253 18.6833C34.3253 19.7243 34.1652 20.7652 34.005 21.8061C35.2862 21.1656 36.6474 20.525 38.0086 19.9645L39.1296 19.4841C40.9712 15.0801 42.8929 10.8364 45.4552 7.1531C47.5371 4.19046 50.6598 1.38797 54.3431 1.38797C57.626 1.38797 58.9072 3.06947 58.9072 5.15132C58.9072 11.0766 50.0193 15.8809 43.4534 18.9236C40.2506 28.5321 37.4481 38.7812 29.3609 45.267C25.2773 48.5499 20.2328 50.1513 15.9089 50.1513C15.1883 50.1513 14.4677 50.0713 13.8271 49.9912C14.6278 54.315 17.1901 57.7581 22.8751 57.7581C24.5566 57.7581 25.9178 57.3577 27.8395 56.0766C27.8395 56.0766 27.9196 55.9965 27.9997 55.9965C28.1598 55.9965 28.2399 56.2367 28.2399 56.4769C28.2399 57.678 24.8769 58.8791 22.4748 58.8791ZM44.0139 17.3221C50.1794 14.3595 57.2257 10.0357 57.2257 5.23139C57.2257 3.79011 56.6652 2.4289 54.8235 2.4289C51.7008 2.4289 49.0584 5.95203 47.6972 8.43424C46.2559 11.1567 45.0548 14.1994 44.0139 17.3221ZM10.8645 48.3097C10.7844 47.8293 10.7844 47.2688 10.7844 46.7883C10.7844 36.5392 20.0726 28.7723 31.763 22.847C32.0833 21.646 32.2435 20.3648 32.2435 19.0837C32.2435 14.5196 30.562 9.23495 25.1171 9.23495C13.9872 9.23495 5.09932 25.3293 5.09932 36.9396C5.09932 42.3844 6.62068 46.8684 10.8645 48.3097ZM13.6669 48.7901H13.9872C17.5104 48.7901 22.1545 47.1086 27.279 41.7438C32.5637 36.2189 35.4463 28.6122 38.4089 21.1656L33.5246 23.7278C31.5228 30.2937 26.078 36.6994 20.5531 40.783C20.2328 41.0232 19.8324 41.1834 19.5121 41.1834C19.2719 41.1834 19.1118 41.1033 19.1118 40.9431C19.1118 40.783 19.1118 40.7029 19.2719 40.5428C23.9961 37.0196 29.1207 31.3346 31.2025 25.009C22.0744 30.3737 13.5869 37.9004 13.5869 46.8684C13.5869 47.509 13.5869 48.1495 13.6669 48.7901Z" fill="white"/>
</svg>
