<svg width="21" height="21" viewBox="0 0 21 21" fill="none" xmlns="http://www.w3.org/2000/svg">
<path d="M10.2747 18.6667H9.60807V20H10.2747V19.3334V18.6667ZM5.08955 9.33335H4.42289V10.6667H5.08955V10V9.33335ZM10.2747 10H10.9414V9.33335H10.2747V10ZM9.60807 15.1852V15.8519H10.9414V15.1852H10.2747H9.60807ZM0.470002 18.8619L-0.0014028 19.3334L0.941406 20.2762L1.41281 19.8048L0.941406 19.3334L0.470002 18.8619ZM0.941406 10H1.60807V2.00002H0.941406H0.27474V10H0.941406ZM0.941406 2.00002H1.60807C1.60807 1.63184 1.90656 1.33335 2.27474 1.33335V0.666687V2.03252e-05C1.17018 2.03252e-05 0.27474 0.895457 0.27474 2.00002H0.941406ZM2.27474 0.666687V1.33335H18.2747V0.666687V2.03252e-05H2.27474V0.666687ZM18.2747 0.666687V1.33335C18.6429 1.33335 18.9414 1.63183 18.9414 2.00002H19.6081H20.2747C20.2747 0.895465 19.3793 2.03252e-05 18.2747 2.03252e-05V0.666687ZM19.6081 2.00002H18.9414V18H19.6081H20.2747V2.00002H19.6081ZM19.6081 18H18.9414C18.9414 18.3682 18.6429 18.6667 18.2747 18.6667V19.3334V20C19.3793 20 20.2747 19.1046 20.2747 18H19.6081ZM18.2747 19.3334V18.6667H10.2747V19.3334V20H18.2747V19.3334ZM5.08955 10V10.6667H10.2747V10V9.33335H5.08955V10ZM10.2747 10H9.60807V15.1852H10.2747H10.9414V10H10.2747ZM10.2747 10L9.80334 9.52862C9.79622 9.53573 9.7891 9.54285 9.782 9.54995C9.77489 9.55706 9.76779 9.56416 9.76069 9.57126C9.7536 9.57835 9.74651 9.58544 9.73943 9.59252C9.73235 9.5996 9.72527 9.60668 9.7182 9.61375C9.71113 9.62082 9.70406 9.62789 9.69701 9.63494C9.68995 9.642 9.68289 9.64906 9.67585 9.6561C9.6688 9.66315 9.66176 9.67019 9.65473 9.67722C9.64769 9.68426 9.64066 9.69129 9.63364 9.69831C9.62662 9.70533 9.6196 9.71235 9.61259 9.71936C9.60558 9.72637 9.59857 9.73338 9.59158 9.74037C9.58458 9.74737 9.57758 9.75437 9.5706 9.76135C9.56361 9.76834 9.55663 9.77532 9.54965 9.7823C9.54268 9.78928 9.53571 9.79624 9.52874 9.80321C9.52178 9.81017 9.51482 9.81713 9.50787 9.82408C9.50091 9.83104 9.49397 9.83798 9.48703 9.84492C9.48008 9.85187 9.47315 9.8588 9.46622 9.86573C9.45929 9.87266 9.45237 9.87958 9.44545 9.8865C9.43853 9.89342 9.43162 9.90033 9.42471 9.90724C9.4178 9.91415 9.4109 9.92105 9.40401 9.92794C9.39711 9.93484 9.39022 9.94173 9.38334 9.94861C9.37645 9.9555 9.36958 9.96237 9.3627 9.96925C9.35583 9.97612 9.34896 9.98299 9.3421 9.98985C9.33524 9.99671 9.32838 10.0036 9.32153 10.0104C9.31468 10.0173 9.30784 10.0241 9.301 10.031C9.29416 10.0378 9.28732 10.0446 9.2805 10.0515C9.27367 10.0583 9.26684 10.0651 9.26003 10.0719C9.25321 10.0787 9.2464 10.0856 9.23959 10.0924C9.23278 10.0992 9.22598 10.106 9.21919 10.1128C9.21239 10.1196 9.2056 10.1263 9.19882 10.1331C9.19203 10.1399 9.18525 10.1467 9.17848 10.1535C9.17171 10.1602 9.16494 10.167 9.15817 10.1738C9.15141 10.1805 9.14465 10.1873 9.1379 10.194C9.13115 10.2008 9.1244 10.2075 9.11766 10.2143C9.11092 10.221 9.10418 10.2278 9.09745 10.2345C9.09072 10.2412 9.08399 10.248 9.07727 10.2547C9.07055 10.2614 9.06384 10.2681 9.05713 10.2748C9.05042 10.2815 9.04371 10.2882 9.03701 10.2949C9.03031 10.3016 9.02362 10.3083 9.01693 10.315C9.01024 10.3217 9.00356 10.3284 8.99688 10.3351C8.9902 10.3418 8.98353 10.3484 8.97686 10.3551C8.97019 10.3618 8.96353 10.3684 8.95687 10.3751C8.95021 10.3817 8.94356 10.3884 8.93691 10.395C8.93026 10.4017 8.92362 10.4083 8.91698 10.415C8.91034 10.4216 8.90371 10.4282 8.89708 10.4349C8.89045 10.4415 8.88383 10.4481 8.87721 10.4547C8.8706 10.4614 8.86398 10.468 8.85738 10.4746C8.85077 10.4812 8.84417 10.4878 8.83757 10.4944C8.83097 10.501 8.82438 10.5076 8.81779 10.5142C8.8112 10.5207 8.80462 10.5273 8.79805 10.5339C8.79147 10.5405 8.78489 10.5471 8.77833 10.5536C8.77176 10.5602 8.7652 10.5668 8.75864 10.5733C8.75208 10.5799 8.74553 10.5864 8.73898 10.593C8.73243 10.5995 8.72589 10.6061 8.71935 10.6126C8.71281 10.6191 8.70628 10.6257 8.69975 10.6322C8.69322 10.6387 8.6867 10.6453 8.68018 10.6518C8.67366 10.6583 8.66714 10.6648 8.66063 10.6713C8.65412 10.6778 8.64762 10.6843 8.64112 10.6908C8.63462 10.6973 8.62812 10.7038 8.62163 10.7103C8.61514 10.7168 8.60866 10.7233 8.60218 10.7298C8.59569 10.7363 8.58922 10.7427 8.58275 10.7492C8.57627 10.7557 8.56981 10.7621 8.56334 10.7686C8.55688 10.7751 8.55042 10.7815 8.54397 10.788C8.53752 10.7944 8.53107 10.8009 8.52463 10.8073C8.51818 10.8138 8.51174 10.8202 8.50531 10.8266C8.49887 10.8331 8.49244 10.8395 8.48602 10.8459C8.47959 10.8524 8.47317 10.8588 8.46675 10.8652C8.46034 10.8716 8.45393 10.878 8.44752 10.8844C8.44111 10.8908 8.43471 10.8972 8.42831 10.9036C8.42191 10.91 8.41552 10.9164 8.40913 10.9228C8.40274 10.9292 8.39635 10.9356 8.38997 10.942C8.38359 10.9484 8.37721 10.9547 8.37084 10.9611C8.36447 10.9675 8.3581 10.9738 8.35174 10.9802C8.34538 10.9866 8.33902 10.9929 8.33266 10.9993C8.32631 11.0056 8.31996 11.012 8.31362 11.0183C8.30727 11.0247 8.30093 11.031 8.29459 11.0374C8.28825 11.0437 8.28192 11.05 8.27559 11.0564C8.26927 11.0627 8.26294 11.069 8.25662 11.0753C8.2503 11.0816 8.24399 11.088 8.23768 11.0943C8.23136 11.1006 8.22506 11.1069 8.21876 11.1132C8.21245 11.1195 8.20615 11.1258 8.19986 11.1321C8.19357 11.1384 8.18728 11.1447 8.18099 11.151C8.1747 11.1572 8.16842 11.1635 8.16214 11.1698C8.15587 11.1761 8.14959 11.1824 8.14332 11.1886C8.13705 11.1949 8.13079 11.2012 8.12453 11.2074C8.11827 11.2137 8.11201 11.2199 8.10576 11.2262C8.0995 11.2324 8.09326 11.2387 8.08701 11.2449C8.08077 11.2512 8.07453 11.2574 8.06829 11.2637C8.06205 11.2699 8.05582 11.2761 8.04959 11.2824C8.04336 11.2886 8.03714 11.2948 8.03092 11.301C8.0247 11.3073 8.01848 11.3135 8.01227 11.3197C8.00606 11.3259 7.99985 11.3321 7.99364 11.3383C7.98744 11.3445 7.98124 11.3507 7.97504 11.3569C7.96884 11.3631 7.96265 11.3693 7.95646 11.3755C7.95027 11.3817 7.94409 11.3879 7.9379 11.394C7.93172 11.4002 7.92555 11.4064 7.91937 11.4126C7.9132 11.4188 7.90703 11.4249 7.90086 11.4311C7.8947 11.4373 7.88853 11.4434 7.88238 11.4496C7.87622 11.4557 7.87006 11.4619 7.86391 11.468C7.85776 11.4742 7.85161 11.4803 7.84547 11.4865C7.83933 11.4926 7.83319 11.4988 7.82705 11.5049C7.82092 11.511 7.81479 11.5172 7.80866 11.5233C7.80253 11.5294 7.7964 11.5355 7.79028 11.5417C7.78416 11.5478 7.77804 11.5539 7.77193 11.56C7.76582 11.5661 7.75971 11.5722 7.7536 11.5784C7.74749 11.5845 7.74139 11.5906 7.73529 11.5967C7.72919 11.6028 7.7231 11.6089 7.717 11.6149C7.71091 11.621 7.70482 11.6271 7.69874 11.6332C7.69265 11.6393 7.68657 11.6454 7.6805 11.6515C7.67442 11.6575 7.66834 11.6636 7.66227 11.6697C7.6562 11.6757 7.65013 11.6818 7.64407 11.6879C7.63801 11.6939 7.63195 11.7 7.62589 11.7061C7.61983 11.7121 7.61378 11.7182 7.60773 11.7242C7.60168 11.7303 7.59563 11.7363 7.58959 11.7424C7.58355 11.7484 7.57751 11.7544 7.57147 11.7605C7.56544 11.7665 7.5594 11.7725 7.55337 11.7786C7.54734 11.7846 7.54132 11.7906 7.53529 11.7967C7.52927 11.8027 7.52325 11.8087 7.51724 11.8147C7.51122 11.8207 7.50521 11.8267 7.4992 11.8328C7.49319 11.8388 7.48718 11.8448 7.48118 11.8508C7.47518 11.8568 7.46918 11.8628 7.46318 11.8688C7.45718 11.8748 7.45119 11.8808 7.4452 11.8868C7.43921 11.8927 7.43322 11.8987 7.42724 11.9047C7.42126 11.9107 7.41528 11.9167 7.4093 11.9227C7.40332 11.9286 7.39735 11.9346 7.39138 11.9406C7.38541 11.9465 7.37944 11.9525 7.37347 11.9585C7.36751 11.9644 7.36155 11.9704 7.35559 11.9764C7.34963 11.9823 7.34367 11.9883 7.33772 11.9942C7.33177 12.0002 7.32582 12.0061 7.31988 12.0121C7.31393 12.018 7.30799 12.024 7.30205 12.0299C7.29611 12.0358 7.29017 12.0418 7.28424 12.0477C7.2783 12.0536 7.27237 12.0596 7.26644 12.0655C7.26051 12.0714 7.25459 12.0774 7.24867 12.0833C7.24275 12.0892 7.23683 12.0951 7.23091 12.101C7.22499 12.107 7.21908 12.1129 7.21317 12.1188C7.20726 12.1247 7.20135 12.1306 7.19545 12.1365C7.18954 12.1424 7.18364 12.1483 7.17774 12.1542C7.17184 12.1601 7.16595 12.166 7.16006 12.1719C7.15416 12.1778 7.14827 12.1837 7.14239 12.1896C7.1365 12.1955 7.13061 12.2013 7.12473 12.2072C7.11885 12.2131 7.11297 12.219 7.10709 12.2249C7.10122 12.2307 7.09535 12.2366 7.08947 12.2425C7.0836 12.2483 7.07774 12.2542 7.07187 12.2601C7.06601 12.2659 7.06014 12.2718 7.05428 12.2777C7.04842 12.2835 7.04257 12.2894 7.03671 12.2952C7.03086 12.3011 7.02501 12.3069 7.01916 12.3128C7.01331 12.3186 7.00746 12.3245 7.00162 12.3303C6.99577 12.3362 6.98993 12.342 6.98409 12.3479C6.97825 12.3537 6.97242 12.3595 6.96659 12.3654C6.96075 12.3712 6.95492 12.377 6.94909 12.3829C6.94326 12.3887 6.93744 12.3945 6.93162 12.4003C6.92579 12.4062 6.91997 12.412 6.91415 12.4178C6.90834 12.4236 6.90252 12.4294 6.89671 12.4352C6.89089 12.4411 6.88508 12.4469 6.87927 12.4527C6.87347 12.4585 6.86766 12.4643 6.86186 12.4701C6.85605 12.4759 6.85025 12.4817 6.84445 12.4875C6.83865 12.4933 6.83286 12.4991 6.82706 12.5049C6.82127 12.5107 6.81548 12.5165 6.80969 12.5223C6.8039 12.528 6.79812 12.5338 6.79233 12.5396C6.78655 12.5454 6.78077 12.5512 6.77499 12.557C6.76921 12.5627 6.76343 12.5685 6.75765 12.5743C6.75188 12.5801 6.74611 12.5858 6.74033 12.5916C6.73456 12.5974 6.7288 12.6032 6.72303 12.6089C6.71726 12.6147 6.7115 12.6204 6.70574 12.6262C6.69998 12.632 6.69422 12.6377 6.68846 12.6435C6.6827 12.6492 6.67695 12.655 6.6712 12.6608C6.66544 12.6665 6.65969 12.6723 6.65394 12.678C6.6482 12.6838 6.64245 12.6895 6.63671 12.6952C6.63096 12.701 6.62522 12.7067 6.61948 12.7125C6.61374 12.7182 6.608 12.7239 6.60227 12.7297C6.59653 12.7354 6.5908 12.7412 6.58507 12.7469C6.57933 12.7526 6.5736 12.7583 6.56788 12.7641C6.56215 12.7698 6.55642 12.7755 6.5507 12.7812C6.54498 12.787 6.53926 12.7927 6.53354 12.7984C6.52782 12.8041 6.5221 12.8099 6.51638 12.8156C6.51067 12.8213 6.50495 12.827 6.49924 12.8327C6.49353 12.8384 6.48782 12.8441 6.48211 12.8498C6.47641 12.8555 6.4707 12.8613 6.465 12.867C6.45929 12.8727 6.45359 12.8784 6.44789 12.8841C6.44219 12.8898 6.43649 12.8955 6.43079 12.9012C6.4251 12.9069 6.4194 12.9125 6.41371 12.9182C6.40802 12.9239 6.40233 12.9296 6.39664 12.9353C6.39095 12.941 6.38526 12.9467 6.37957 12.9524C6.37389 12.9581 6.3682 12.9637 6.36252 12.9694C6.35684 12.9751 6.35116 12.9808 6.34548 12.9865C6.3398 12.9921 6.33412 12.9978 6.32845 13.0035C6.32277 13.0092 6.3171 13.0149 6.31143 13.0205C6.30576 13.0262 6.30009 13.0319 6.29442 13.0375C6.28875 13.0432 6.28308 13.0489 6.27741 13.0545C6.27175 13.0602 6.26609 13.0659 6.26042 13.0715C6.25476 13.0772 6.2491 13.0828 6.24344 13.0885C6.23778 13.0942 6.23212 13.0998 6.22647 13.1055C6.22081 13.1111 6.21516 13.1168 6.20951 13.1224C6.20385 13.1281 6.1982 13.1337 6.19255 13.1394C6.1869 13.145 6.18125 13.1507 6.17561 13.1563C6.16996 13.162 6.16431 13.1676 6.15867 13.1733C6.15303 13.1789 6.14738 13.1846 6.14174 13.1902C6.1361 13.1958 6.13046 13.2015 6.12482 13.2071C6.11919 13.2128 6.11355 13.2184 6.10791 13.224C6.10228 13.2297 6.09664 13.2353 6.09101 13.2409C6.08538 13.2466 6.07975 13.2522 6.07412 13.2578C6.06849 13.2635 6.06286 13.2691 6.05723 13.2747C6.05161 13.2803 6.04598 13.286 6.04035 13.2916C6.03473 13.2972 6.02911 13.3028 6.02348 13.3085C6.01786 13.3141 6.01224 13.3197 6.00662 13.3253C6.001 13.3309 5.99538 13.3366 5.98977 13.3422C5.98415 13.3478 5.97853 13.3534 5.97292 13.359C5.9673 13.3646 5.96169 13.3703 5.95608 13.3759C5.95047 13.3815 5.94485 13.3871 5.93924 13.3927C5.93363 13.3983 5.92802 13.4039 5.92242 13.4095C5.91681 13.4151 5.9112 13.4207 5.9056 13.4264C5.89999 13.432 5.89439 13.4376 5.88878 13.4432C5.88318 13.4488 5.87758 13.4544 5.87198 13.46C5.86637 13.4656 5.86077 13.4712 5.85518 13.4768C5.84958 13.4824 5.84398 13.488 5.83838 13.4936C5.83278 13.4992 5.82719 13.5048 5.82159 13.5104C5.816 13.516 5.8104 13.5215 5.80481 13.5271C5.79922 13.5327 5.79362 13.5383 5.78803 13.5439C5.78244 13.5495 5.77685 13.5551 5.77126 13.5607C5.76567 13.5663 5.76008 13.5719 5.75449 13.5775C5.74891 13.583 5.74332 13.5886 5.73773 13.5942C5.73215 13.5998 5.72656 13.6054 5.72098 13.611C5.71539 13.6166 5.70981 13.6221 5.70423 13.6277C5.69865 13.6333 5.69306 13.6389 5.68748 13.6445C5.6819 13.65 5.67632 13.6556 5.67074 13.6612C5.66516 13.6668 5.65958 13.6724 5.65401 13.6779C5.64843 13.6835 5.64285 13.6891 5.63727 13.6947C5.6317 13.7003 5.62612 13.7058 5.62055 13.7114C5.61497 13.717 5.6094 13.7226 5.60382 13.7281C5.59825 13.7337 5.59267 13.7393 5.5871 13.7448C5.58153 13.7504 5.57596 13.756 5.57039 13.7616C5.56482 13.7671 5.55924 13.7727 5.55367 13.7783C5.5481 13.7838 5.54254 13.7894 5.53697 13.795C5.5314 13.8006 5.52583 13.8061 5.52026 13.8117C5.51469 13.8173 5.50913 13.8228 5.50356 13.8284C5.49799 13.834 5.49243 13.8395 5.48686 13.8451C5.4813 13.8507 5.47573 13.8562 5.47017 13.8618C5.4646 13.8673 5.45904 13.8729 5.45347 13.8785C5.44791 13.884 5.44235 13.8896 5.43678 13.8952C5.43122 13.9007 5.42566 13.9063 5.4201 13.9119C5.41453 13.9174 5.40897 13.923 5.40341 13.9285C5.39785 13.9341 5.39229 13.9397 5.38673 13.9452C5.38117 13.9508 5.37561 13.9563 5.37005 13.9619C5.36449 13.9675 5.35893 13.973 5.35337 13.9786C5.34781 13.9841 5.34225 13.9897 5.33669 13.9953C5.33114 14.0008 5.32558 14.0064 5.32002 14.0119C5.31446 14.0175 5.3089 14.023 5.30335 14.0286C5.29779 14.0342 5.29223 14.0397 5.28667 14.0453C5.28112 14.0508 5.27556 14.0564 5.27 14.0619C5.26445 14.0675 5.25889 14.0731 5.25333 14.0786C5.24778 14.0842 5.24222 14.0897 5.23667 14.0953C5.23111 14.1008 5.22555 14.1064 5.22 14.112C5.21444 14.1175 5.20889 14.1231 5.20333 14.1286C5.19778 14.1342 5.19222 14.1397 5.18667 14.1453C5.18111 14.1508 5.17555 14.1564 5.17 14.162C5.16444 14.1675 5.15889 14.1731 5.15333 14.1786C5.14778 14.1842 5.14222 14.1897 5.13667 14.1953C5.13111 14.2008 5.12556 14.2064 5.12 14.2119C5.11445 14.2175 5.10889 14.2231 5.10334 14.2286C5.09778 14.2342 5.09223 14.2397 5.08667 14.2453C5.08112 14.2508 5.07556 14.2564 5.07001 14.2619C5.06445 14.2675 5.05889 14.2731 5.05334 14.2786C5.04778 14.2842 5.04223 14.2897 5.03667 14.2953C5.03112 14.3008 5.02556 14.3064 5.02 14.3119C5.01445 14.3175 5.00889 14.3231 5.00333 14.3286C4.99778 14.3342 4.99222 14.3397 4.98666 14.3453C4.98111 14.3508 4.97555 14.3564 4.96999 14.362C4.96443 14.3675 4.95888 14.3731 4.95332 14.3786C4.94776 14.3842 4.9422 14.3897 4.93664 14.3953C4.93108 14.4009 4.92553 14.4064 4.91997 14.412C4.91441 14.4175 4.90885 14.4231 4.90329 14.4287C4.89773 14.4342 4.89217 14.4398 4.88661 14.4453C4.88105 14.4509 4.87549 14.4565 4.86992 14.462C4.86436 14.4676 4.8588 14.4731 4.85324 14.4787C4.84768 14.4843 4.84212 14.4898 4.83655 14.4954C4.83099 14.501 4.82543 14.5065 4.81986 14.5121C4.8143 14.5177 4.80873 14.5232 4.80317 14.5288C4.79761 14.5343 4.79204 14.5399 4.78647 14.5455C4.78091 14.551 4.77534 14.5566 4.76978 14.5622C4.76421 14.5677 4.75864 14.5733 4.75307 14.5789C4.74751 14.5844 4.74194 14.59 4.73637 14.5956C4.7308 14.6011 4.72523 14.6067 4.71966 14.6123C4.71409 14.6179 4.70852 14.6234 4.70295 14.629C4.69738 14.6346 4.69181 14.6401 4.68623 14.6457C4.68066 14.6513 4.67509 14.6569 4.66951 14.6624C4.66394 14.668 4.65837 14.6736 4.65279 14.6792C4.64722 14.6847 4.64164 14.6903 4.63606 14.6959C4.63049 14.7015 4.62491 14.707 4.61933 14.7126C4.61375 14.7182 4.60817 14.7238 4.6026 14.7294C4.59702 14.7349 4.59144 14.7405 4.58585 14.7461C4.58027 14.7517 4.57469 14.7573 4.56911 14.7628C4.56353 14.7684 4.55794 14.774 4.55236 14.7796C4.54677 14.7852 4.54119 14.7908 4.5356 14.7963C4.53002 14.8019 4.52443 14.8075 4.51884 14.8131C4.51325 14.8187 4.50767 14.8243 4.50208 14.8299C4.49649 14.8355 4.4909 14.8411 4.4853 14.8466C4.47971 14.8522 4.47412 14.8578 4.46853 14.8634C4.46293 14.869 4.45734 14.8746 4.45174 14.8802C4.44615 14.8858 4.44055 14.8914 4.43496 14.897C4.42936 14.9026 4.42376 14.9082 4.41816 14.9138C4.41256 14.9194 4.40696 14.925 4.40136 14.9306C4.39576 14.9362 4.39016 14.9418 4.38455 14.9474C4.37895 14.953 4.37335 14.9586 4.36774 14.9642C4.36213 14.9698 4.35653 14.9754 4.35092 14.981C4.34531 14.9866 4.3397 14.9922 4.33409 14.9979C4.32848 15.0035 4.32287 15.0091 4.31726 15.0147C4.31165 15.0203 4.30603 15.0259 4.30042 15.0315C4.2948 15.0371 4.28919 15.0428 4.28357 15.0484C4.27795 15.054 4.27233 15.0596 4.26671 15.0652C4.2611 15.0709 4.25547 15.0765 4.24985 15.0821C4.24423 15.0877 4.23861 15.0933 4.23298 15.099C4.22736 15.1046 4.22173 15.1102 4.2161 15.1158C4.21048 15.1215 4.20485 15.1271 4.19922 15.1327C4.19359 15.1384 4.18796 15.144 4.18232 15.1496C4.17669 15.1553 4.17106 15.1609 4.16542 15.1665C4.15979 15.1722 4.15415 15.1778 4.14851 15.1834C4.14287 15.1891 4.13723 15.1947 4.13159 15.2004C4.12595 15.206 4.12031 15.2116 4.11467 15.2173C4.10902 15.2229 4.10338 15.2286 4.09773 15.2342C4.09208 15.2399 4.08643 15.2455 4.08078 15.2512C4.07513 15.2568 4.06948 15.2625 4.06383 15.2681C4.05818 15.2738 4.05252 15.2794 4.04687 15.2851C4.04121 15.2907 4.03555 15.2964 4.02989 15.3021C4.02424 15.3077 4.01858 15.3134 4.01291 15.319C4.00725 15.3247 4.00159 15.3304 3.99592 15.336C3.99026 15.3417 3.98459 15.3474 3.97892 15.353C3.97325 15.3587 3.96758 15.3644 3.96191 15.37C3.95624 15.3757 3.95056 15.3814 3.94489 15.3871C3.93921 15.3927 3.93354 15.3984 3.92786 15.4041C3.92218 15.4098 3.9165 15.4155 3.91082 15.4211C3.90513 15.4268 3.89945 15.4325 3.89376 15.4382C3.88808 15.4439 3.88239 15.4496 3.8767 15.4552C3.87101 15.4609 3.86532 15.4666 3.85963 15.4723C3.85393 15.478 3.84824 15.4837 3.84254 15.4894C3.83685 15.4951 3.83115 15.5008 3.82545 15.5065C3.81975 15.5122 3.81404 15.5179 3.80834 15.5236C3.80264 15.5293 3.79693 15.535 3.79122 15.5407C3.78552 15.5464 3.77981 15.5521 3.77409 15.5579C3.76838 15.5636 3.76267 15.5693 3.75695 15.575C3.75124 15.5807 3.74552 15.5864 3.7398 15.5921C3.73408 15.5979 3.72836 15.6036 3.72264 15.6093C3.71691 15.615 3.71119 15.6208 3.70546 15.6265C3.69973 15.6322 3.694 15.6379 3.68827 15.6437C3.68254 15.6494 3.67681 15.6551 3.67107 15.6609C3.66533 15.6666 3.6596 15.6724 3.65386 15.6781C3.64812 15.6838 3.64237 15.6896 3.63663 15.6953C3.63089 15.7011 3.62514 15.7068 3.61939 15.7126C3.61364 15.7183 3.60789 15.7241 3.60214 15.7298C3.59639 15.7356 3.59063 15.7413 3.58487 15.7471C3.57912 15.7528 3.57336 15.7586 3.5676 15.7644C3.56184 15.7701 3.55607 15.7759 3.55031 15.7816C3.54454 15.7874 3.53877 15.7932 3.533 15.7989C3.52723 15.8047 3.52146 15.8105 3.51568 15.8163C3.50991 15.822 3.50413 15.8278 3.49835 15.8336C3.49257 15.8394 3.48679 15.8452 3.48101 15.8509C3.47522 15.8567 3.46943 15.8625 3.46365 15.8683C3.45786 15.8741 3.45206 15.8799 3.44627 15.8857C3.44048 15.8915 3.43468 15.8973 3.42888 15.9031C3.42308 15.9089 3.41728 15.9147 3.41148 15.9205C3.40568 15.9263 3.39987 15.9321 3.39406 15.9379C3.38825 15.9437 3.38244 15.9495 3.37663 15.9553C3.37082 15.9611 3.365 15.9669 3.35918 15.9728C3.35337 15.9786 3.34754 15.9844 3.34172 15.9902C3.3359 15.9961 3.33007 16.0019 3.32424 16.0077C3.31842 16.0135 3.31258 16.0194 3.30675 16.0252C3.30092 16.031 3.29508 16.0369 3.28924 16.0427C3.2834 16.0485 3.27756 16.0544 3.27172 16.0602C3.26588 16.0661 3.26003 16.0719 3.25418 16.0778C3.24833 16.0836 3.24248 16.0895 3.23662 16.0953C3.23077 16.1012 3.22491 16.107 3.21905 16.1129C3.21319 16.1188 3.20733 16.1246 3.20147 16.1305C3.1956 16.1363 3.18973 16.1422 3.18386 16.1481C3.17799 16.154 3.17212 16.1598 3.16624 16.1657C3.16037 16.1716 3.15449 16.1775 3.1486 16.1833C3.14272 16.1892 3.13684 16.1951 3.13095 16.201C3.12506 16.2069 3.11917 16.2128 3.11328 16.2187C3.10739 16.2246 3.10149 16.2305 3.09559 16.2364C3.08969 16.2423 3.08379 16.2482 3.07789 16.2541C3.07198 16.26 3.06608 16.2659 3.06017 16.2718C3.05426 16.2777 3.04834 16.2836 3.04243 16.2895C3.03651 16.2954 3.03059 16.3014 3.02467 16.3073C3.01875 16.3132 3.01282 16.3191 3.00689 16.3251C3.00097 16.331 2.99504 16.3369 2.9891 16.3428C2.98317 16.3488 2.97723 16.3547 2.97129 16.3607C2.96535 16.3666 2.95941 16.3725 2.95346 16.3785C2.94752 16.3844 2.94157 16.3904 2.93561 16.3963C2.92966 16.4023 2.92371 16.4082 2.91775 16.4142C2.91179 16.4202 2.90583 16.4261 2.89986 16.4321C2.8939 16.4381 2.88793 16.444 2.88196 16.45C2.87599 16.456 2.87002 16.4619 2.86404 16.4679C2.85806 16.4739 2.85208 16.4799 2.8461 16.4859C2.84011 16.4918 2.83413 16.4978 2.82814 16.5038C2.82215 16.5098 2.81615 16.5158 2.81016 16.5218C2.80416 16.5278 2.79816 16.5338 2.79216 16.5398C2.78615 16.5458 2.78015 16.5518 2.77414 16.5578C2.76813 16.5638 2.76212 16.5698 2.7561 16.5758C2.75008 16.5819 2.74406 16.5879 2.73804 16.5939C2.73202 16.5999 2.72599 16.606 2.71996 16.612C2.71393 16.618 2.7079 16.624 2.70186 16.6301C2.69583 16.6361 2.68979 16.6422 2.68375 16.6482C2.6777 16.6542 2.67166 16.6603 2.66561 16.6663C2.65956 16.6724 2.6535 16.6784 2.64745 16.6845C2.64139 16.6906 2.63533 16.6966 2.62927 16.7027C2.6232 16.7087 2.61713 16.7148 2.61106 16.7209C2.60499 16.727 2.59892 16.733 2.59284 16.7391C2.58676 16.7452 2.58068 16.7513 2.5746 16.7574C2.56851 16.7634 2.56242 16.7695 2.55633 16.7756C2.55024 16.7817 2.54414 16.7878 2.53804 16.7939C2.53195 16.8 2.52584 16.8061 2.51974 16.8122C2.51363 16.8183 2.50752 16.8244 2.50141 16.8305C2.49529 16.8367 2.48918 16.8428 2.48305 16.8489C2.47693 16.855 2.47081 16.8611 2.46468 16.8673C2.45855 16.8734 2.45242 16.8795 2.44628 16.8857C2.44015 16.8918 2.43401 16.8979 2.42787 16.9041C2.42172 16.9102 2.41557 16.9164 2.40942 16.9225C2.40327 16.9287 2.39712 16.9348 2.39096 16.941C2.3848 16.9471 2.37864 16.9533 2.37247 16.9595C2.36631 16.9656 2.36014 16.9718 2.35396 16.978C2.34779 16.9842 2.34161 16.9903 2.33543 16.9965C2.32925 17.0027 2.32307 17.0089 2.31688 17.0151C2.31069 17.0213 2.30449 17.0275 2.2983 17.0337C2.2921 17.0399 2.2859 17.0461 2.27969 17.0523C2.27349 17.0585 2.26728 17.0647 2.26107 17.0709C2.25486 17.0771 2.24864 17.0833 2.24242 17.0895C2.2362 17.0958 2.22997 17.102 2.22374 17.1082C2.21752 17.1144 2.21128 17.1207 2.20505 17.1269C2.19881 17.1331 2.19257 17.1394 2.18632 17.1456C2.18008 17.1519 2.17383 17.1581 2.16758 17.1644C2.16133 17.1706 2.15507 17.1769 2.14881 17.1831C2.14255 17.1894 2.13628 17.1957 2.13001 17.2019C2.12374 17.2082 2.11747 17.2145 2.11119 17.2208C2.10491 17.227 2.09863 17.2333 2.09235 17.2396C2.08606 17.2459 2.07977 17.2522 2.07348 17.2585C2.06718 17.2648 2.06088 17.2711 2.05458 17.2774C2.04828 17.2837 2.04197 17.29 2.03566 17.2963C2.02935 17.3026 2.02303 17.3089 2.01671 17.3152C2.01039 17.3216 2.00407 17.3279 1.99774 17.3342C1.99141 17.3405 1.98508 17.3469 1.97874 17.3532C1.97241 17.3595 1.96607 17.3659 1.95972 17.3722C1.95338 17.3786 1.94703 17.3849 1.94067 17.3913C1.93432 17.3976 1.92796 17.404 1.9216 17.4104C1.91523 17.4167 1.90887 17.4231 1.90249 17.4295C1.89612 17.4358 1.88975 17.4422 1.88336 17.4486C1.87698 17.455 1.8706 17.4614 1.86421 17.4677C1.85782 17.4741 1.85143 17.4805 1.84503 17.4869C1.83863 17.4933 1.83223 17.4997 1.82582 17.5061C1.81941 17.5125 1.813 17.519 1.80658 17.5254C1.80017 17.5318 1.79375 17.5382 1.78732 17.5446C1.78089 17.5511 1.77446 17.5575 1.76803 17.5639C1.76159 17.5704 1.75515 17.5768 1.74871 17.5832C1.74227 17.5897 1.73582 17.5961 1.72937 17.6026C1.72291 17.609 1.71645 17.6155 1.70999 17.622C1.70353 17.6284 1.69706 17.6349 1.69059 17.6414C1.68412 17.6478 1.67764 17.6543 1.67116 17.6608C1.66468 17.6673 1.65819 17.6738 1.6517 17.6802C1.64521 17.6867 1.63872 17.6932 1.63222 17.6997C1.62572 17.7062 1.61921 17.7127 1.6127 17.7192C1.60619 17.7258 1.59968 17.7323 1.59316 17.7388C1.58664 17.7453 1.58012 17.7518 1.57359 17.7584C1.56706 17.7649 1.56053 17.7714 1.55399 17.778C1.54745 17.7845 1.54091 17.791 1.53436 17.7976C1.52781 17.8041 1.52126 17.8107 1.5147 17.8173C1.50814 17.8238 1.50158 17.8304 1.49501 17.8369C1.48844 17.8435 1.48187 17.8501 1.47529 17.8567C1.46871 17.8632 1.46213 17.8698 1.45554 17.8764C1.44896 17.883 1.44236 17.8896 1.43577 17.8962C1.42917 17.9028 1.42257 17.9094 1.41596 17.916C1.40935 17.9226 1.40274 17.9292 1.39612 17.9358C1.3895 17.9424 1.38288 17.9491 1.37625 17.9557C1.36963 17.9623 1.36299 17.969 1.35636 17.9756C1.34972 17.9822 1.34308 17.9889 1.33643 17.9955C1.32978 18.0022 1.32313 18.0088 1.31647 18.0155C1.30981 18.0221 1.30315 18.0288 1.29648 18.0355C1.28981 18.0421 1.28314 18.0488 1.27646 18.0555C1.26978 18.0622 1.2631 18.0689 1.25641 18.0755C1.24972 18.0822 1.24302 18.0889 1.23632 18.0956C1.22962 18.1023 1.22292 18.109 1.21621 18.1157C1.2095 18.1225 1.20278 18.1292 1.19606 18.1359C1.18934 18.1426 1.18262 18.1493 1.17589 18.1561C1.16915 18.1628 1.16242 18.1695 1.15568 18.1763C1.14893 18.183 1.14219 18.1898 1.13544 18.1965C1.12868 18.2033 1.12193 18.21 1.11516 18.2168C1.1084 18.2236 1.10163 18.2303 1.09486 18.2371C1.08808 18.2439 1.0813 18.2506 1.07452 18.2574C1.06773 18.2642 1.06094 18.271 1.05415 18.2778C1.04735 18.2846 1.04055 18.2914 1.03375 18.2982C1.02694 18.305 1.02013 18.3118 1.01331 18.3186C1.00649 18.3255 0.999669 18.3323 0.992841 18.3391C0.986012 18.3459 0.979178 18.3528 0.972339 18.3596C0.9655 18.3665 0.958655 18.3733 0.951804 18.3801C0.944953 18.387 0.938097 18.3939 0.931236 18.4007C0.924374 18.4076 0.917507 18.4144 0.910634 18.4213C0.903761 18.4282 0.896882 18.4351 0.889998 18.442C0.883114 18.4488 0.876224 18.4557 0.869329 18.4626C0.862433 18.4695 0.855532 18.4764 0.848626 18.4833C0.841719 18.4902 0.834806 18.4971 0.827888 18.5041C0.82097 18.511 0.814046 18.5179 0.807117 18.5248C0.800187 18.5318 0.793252 18.5387 0.786311 18.5456C0.77937 18.5526 0.772423 18.5595 0.76547 18.5665C0.758518 18.5734 0.75156 18.5804 0.744595 18.5874C0.737631 18.5943 0.730661 18.6013 0.723686 18.6083C0.71671 18.6152 0.709728 18.6222 0.702741 18.6292C0.695753 18.6362 0.68876 18.6432 0.681761 18.6502C0.674762 18.6572 0.667757 18.6642 0.660746 18.6712C0.653735 18.6782 0.646718 18.6852 0.639695 18.6923C0.632673 18.6993 0.625644 18.7063 0.61861 18.7133C0.611575 18.7204 0.604534 18.7274 0.597488 18.7345C0.590441 18.7415 0.583389 18.7486 0.576331 18.7556C0.569272 18.7627 0.562208 18.7697 0.555137 18.7768C0.548067 18.7839 0.54099 18.791 0.533908 18.798C0.526825 18.8051 0.519737 18.8122 0.512642 18.8193C0.505548 18.8264 0.498447 18.8335 0.49134 18.8406C0.484233 18.8477 0.477121 18.8548 0.470002 18.8619L0.941406 19.3334L1.41281 19.8048C1.41993 19.7976 1.42704 19.7905 1.43415 19.7834C1.44126 19.7763 1.44836 19.7692 1.45545 19.7621C1.46255 19.755 1.46963 19.7479 1.47672 19.7409C1.4838 19.7338 1.49088 19.7267 1.49795 19.7196C1.50502 19.7126 1.51208 19.7055 1.51914 19.6984C1.5262 19.6914 1.53325 19.6843 1.5403 19.6773C1.54734 19.6702 1.55438 19.6632 1.56142 19.6561C1.56845 19.6491 1.57548 19.6421 1.5825 19.6351C1.58953 19.628 1.59654 19.621 1.60355 19.614C1.61057 19.607 1.61757 19.6 1.62457 19.593C1.63157 19.586 1.63856 19.579 1.64555 19.572C1.65254 19.565 1.65952 19.5581 1.66649 19.5511C1.67347 19.5441 1.68044 19.5371 1.6874 19.5302C1.69437 19.5232 1.70133 19.5162 1.70828 19.5093C1.71523 19.5023 1.72218 19.4954 1.72912 19.4884C1.73606 19.4815 1.743 19.4746 1.74993 19.4676C1.75686 19.4607 1.76378 19.4538 1.7707 19.4469C1.77762 19.44 1.78453 19.433 1.79143 19.4261C1.79834 19.4192 1.80524 19.4123 1.81214 19.4054C1.81903 19.3985 1.82592 19.3916 1.83281 19.3848C1.83969 19.3779 1.84657 19.371 1.85344 19.3641C1.86032 19.3573 1.86718 19.3504 1.87404 19.3435C1.88091 19.3367 1.88776 19.3298 1.89461 19.323C1.90146 19.3161 1.90831 19.3093 1.91515 19.3024C1.92199 19.2956 1.92882 19.2887 1.93565 19.2819C1.94248 19.2751 1.9493 19.2683 1.95612 19.2614C1.96294 19.2546 1.96975 19.2478 1.97655 19.241C1.98336 19.2342 1.99016 19.2274 1.99696 19.2206C2.00375 19.2138 2.01054 19.207 2.01733 19.2002C2.02411 19.1935 2.03089 19.1867 2.03767 19.1799C2.04444 19.1731 2.05121 19.1664 2.05797 19.1596C2.06473 19.1528 2.07149 19.1461 2.07824 19.1393C2.085 19.1326 2.09174 19.1258 2.09849 19.1191C2.10523 19.1123 2.11196 19.1056 2.11869 19.0989C2.12543 19.0921 2.13215 19.0854 2.13887 19.0787C2.14559 19.072 2.15231 19.0653 2.15902 19.0585C2.16573 19.0518 2.17243 19.0451 2.17913 19.0384C2.18583 19.0317 2.19253 19.025 2.19922 19.0184C2.2059 19.0117 2.21259 19.005 2.21927 18.9983C2.22595 18.9916 2.23262 18.9849 2.23929 18.9783C2.24596 18.9716 2.25262 18.9649 2.25928 18.9583C2.26594 18.9516 2.27259 18.945 2.27924 18.9383C2.28589 18.9317 2.29253 18.925 2.29917 18.9184C2.3058 18.9118 2.31244 18.9051 2.31906 18.8985C2.32569 18.8919 2.33231 18.8853 2.33893 18.8786C2.34555 18.872 2.35216 18.8654 2.35877 18.8588C2.36538 18.8522 2.37198 18.8456 2.37858 18.839C2.38517 18.8324 2.39177 18.8258 2.39835 18.8192C2.40494 18.8126 2.41152 18.806 2.4181 18.7995C2.42468 18.7929 2.43125 18.7863 2.43782 18.7798C2.44439 18.7732 2.45095 18.7666 2.45751 18.7601C2.46406 18.7535 2.47062 18.747 2.47717 18.7404C2.48371 18.7339 2.49026 18.7273 2.4968 18.7208C2.50333 18.7142 2.50987 18.7077 2.5164 18.7012C2.52293 18.6946 2.52945 18.6881 2.53597 18.6816C2.54249 18.6751 2.549 18.6686 2.55551 18.6621C2.56202 18.6555 2.56853 18.649 2.57503 18.6425C2.58153 18.636 2.58802 18.6295 2.59451 18.6231C2.601 18.6166 2.60749 18.6101 2.61397 18.6036C2.62045 18.5971 2.62693 18.5906 2.6334 18.5842C2.63987 18.5777 2.64634 18.5712 2.6528 18.5648C2.65926 18.5583 2.66572 18.5518 2.67217 18.5454C2.67863 18.5389 2.68508 18.5325 2.69152 18.526C2.69796 18.5196 2.7044 18.5132 2.71084 18.5067C2.71727 18.5003 2.7237 18.4939 2.73013 18.4874C2.73655 18.481 2.74298 18.4746 2.74939 18.4682C2.75581 18.4618 2.76222 18.4553 2.76863 18.4489C2.77504 18.4425 2.78144 18.4361 2.78784 18.4297C2.79424 18.4233 2.80063 18.4169 2.80702 18.4105C2.81341 18.4042 2.81979 18.3978 2.82617 18.3914C2.83255 18.385 2.83893 18.3786 2.8453 18.3723C2.85167 18.3659 2.85804 18.3595 2.8644 18.3532C2.87077 18.3468 2.87713 18.3404 2.88348 18.3341C2.88983 18.3277 2.89618 18.3214 2.90253 18.315C2.90888 18.3087 2.91522 18.3024 2.92155 18.296C2.92789 18.2897 2.93422 18.2833 2.94055 18.277C2.94688 18.2707 2.9532 18.2644 2.95952 18.258C2.96584 18.2517 2.97216 18.2454 2.97847 18.2391C2.98478 18.2328 2.99109 18.2265 2.99739 18.2202C3.00369 18.2139 3.00999 18.2076 3.01629 18.2013C3.02258 18.195 3.02887 18.1887 3.03516 18.1824C3.04144 18.1761 3.04772 18.1698 3.054 18.1636C3.06028 18.1573 3.06655 18.151 3.07282 18.1447C3.07909 18.1385 3.08536 18.1322 3.09162 18.126C3.09788 18.1197 3.10413 18.1134 3.11039 18.1072C3.11664 18.1009 3.12289 18.0947 3.12913 18.0884C3.13538 18.0822 3.14162 18.0759 3.14786 18.0697C3.15409 18.0635 3.16033 18.0572 3.16655 18.051C3.17278 18.0448 3.17901 18.0386 3.18523 18.0323C3.19145 18.0261 3.19766 18.0199 3.20388 18.0137C3.21009 18.0075 3.2163 18.0013 3.2225 17.9951C3.22871 17.9889 3.23491 17.9827 3.24111 17.9765C3.2473 17.9703 3.2535 17.9641 3.25969 17.9579C3.26587 17.9517 3.27206 17.9455 3.27824 17.9393C3.28442 17.9331 3.2906 17.927 3.29677 17.9208C3.30295 17.9146 3.30912 17.9085 3.31528 17.9023C3.32145 17.8961 3.32761 17.89 3.33377 17.8838C3.33993 17.8776 3.34608 17.8715 3.35223 17.8653C3.35838 17.8592 3.36453 17.853 3.37067 17.8469C3.37682 17.8408 3.38296 17.8346 3.38909 17.8285C3.39523 17.8223 3.40136 17.8162 3.40749 17.8101C3.41362 17.804 3.41974 17.7978 3.42586 17.7917C3.43198 17.7856 3.4381 17.7795 3.44422 17.7734C3.45033 17.7672 3.45644 17.7611 3.46255 17.755C3.46865 17.7489 3.47475 17.7428 3.48085 17.7367C3.48695 17.7306 3.49305 17.7245 3.49914 17.7184C3.50523 17.7123 3.51132 17.7062 3.51741 17.7002C3.52349 17.6941 3.52957 17.688 3.53565 17.6819C3.54173 17.6758 3.5478 17.6698 3.55387 17.6637C3.55994 17.6576 3.56601 17.6516 3.57207 17.6455C3.57814 17.6394 3.5842 17.6334 3.59026 17.6273C3.59631 17.6213 3.60237 17.6152 3.60842 17.6092C3.61447 17.6031 3.62051 17.5971 3.62655 17.591C3.6326 17.585 3.63864 17.5789 3.64467 17.5729C3.65071 17.5669 3.65674 17.5608 3.66277 17.5548C3.6688 17.5488 3.67483 17.5427 3.68085 17.5367C3.68687 17.5307 3.69289 17.5247 3.69891 17.5187C3.70493 17.5126 3.71094 17.5066 3.71695 17.5006C3.72296 17.4946 3.72896 17.4886 3.73497 17.4826C3.74097 17.4766 3.74697 17.4706 3.75297 17.4646C3.75896 17.4586 3.76496 17.4526 3.77095 17.4466C3.77694 17.4406 3.78292 17.4346 3.78891 17.4287C3.79489 17.4227 3.80087 17.4167 3.80685 17.4107C3.81282 17.4047 3.8188 17.3988 3.82477 17.3928C3.83074 17.3868 3.83671 17.3809 3.84267 17.3749C3.84864 17.3689 3.8546 17.363 3.86056 17.357C3.86652 17.3511 3.87247 17.3451 3.87842 17.3391C3.88438 17.3332 3.89032 17.3272 3.89627 17.3213C3.90222 17.3154 3.90816 17.3094 3.9141 17.3035C3.92004 17.2975 3.92598 17.2916 3.93191 17.2857C3.93784 17.2797 3.94378 17.2738 3.9497 17.2679C3.95563 17.2619 3.96156 17.256 3.96748 17.2501C3.9734 17.2442 3.97932 17.2382 3.98524 17.2323C3.99115 17.2264 3.99706 17.2205 4.00297 17.2146C4.00889 17.2087 4.01479 17.2028 4.0207 17.1969C4.0266 17.191 4.0325 17.1851 4.0384 17.1792C4.0443 17.1733 4.0502 17.1674 4.05609 17.1615C4.06198 17.1556 4.06787 17.1497 4.07376 17.1438C4.07965 17.1379 4.08553 17.132 4.09141 17.1262C4.0973 17.1203 4.10317 17.1144 4.10905 17.1085C4.11493 17.1026 4.1208 17.0968 4.12667 17.0909C4.13254 17.085 4.13841 17.0792 4.14427 17.0733C4.15014 17.0674 4.156 17.0616 4.16186 17.0557C4.16772 17.0498 4.17358 17.044 4.17943 17.0381C4.18529 17.0323 4.19114 17.0264 4.19699 17.0206C4.20284 17.0147 4.20868 17.0089 4.21453 17.003C4.22037 16.9972 4.22621 16.9914 4.23205 16.9855C4.23789 16.9797 4.24373 16.9738 4.24956 16.968C4.25539 16.9622 4.26122 16.9563 4.26705 16.9505C4.27288 16.9447 4.27871 16.9389 4.28453 16.933C4.29035 16.9272 4.29617 16.9214 4.30199 16.9156C4.30781 16.9098 4.31363 16.9039 4.31944 16.8981C4.32525 16.8923 4.33106 16.8865 4.33687 16.8807C4.34268 16.8749 4.34849 16.8691 4.35429 16.8633C4.36009 16.8575 4.36589 16.8517 4.37169 16.8459C4.37749 16.8401 4.38329 16.8343 4.38908 16.8285C4.39487 16.8227 4.40067 16.8169 4.40645 16.8111C4.41224 16.8053 4.41803 16.7995 4.42381 16.7938C4.4296 16.788 4.43538 16.7822 4.44116 16.7764C4.44694 16.7706 4.45272 16.7649 4.45849 16.7591C4.46427 16.7533 4.47004 16.7475 4.47581 16.7418C4.48158 16.736 4.48735 16.7302 4.49311 16.7245C4.49888 16.7187 4.50464 16.7129 4.51041 16.7072C4.51617 16.7014 4.52193 16.6956 4.52768 16.6899C4.53344 16.6841 4.5392 16.6784 4.54495 16.6726C4.5507 16.6669 4.55645 16.6611 4.5622 16.6554C4.56795 16.6496 4.57369 16.6439 4.57944 16.6381C4.58518 16.6324 4.59093 16.6266 4.59667 16.6209C4.60241 16.6152 4.60814 16.6094 4.61388 16.6037C4.61961 16.598 4.62535 16.5922 4.63108 16.5865C4.63681 16.5808 4.64254 16.575 4.64827 16.5693C4.654 16.5636 4.65972 16.5578 4.66544 16.5521C4.67117 16.5464 4.67689 16.5407 4.68261 16.535C4.68833 16.5292 4.69405 16.5235 4.69976 16.5178C4.70548 16.5121 4.71119 16.5064 4.7169 16.5007C4.72261 16.495 4.72832 16.4892 4.73403 16.4835C4.73974 16.4778 4.74545 16.4721 4.75115 16.4664C4.75685 16.4607 4.76256 16.455 4.76826 16.4493C4.77396 16.4436 4.77965 16.4379 4.78535 16.4322C4.79105 16.4265 4.79674 16.4208 4.80244 16.4151C4.80813 16.4094 4.81382 16.4037 4.81951 16.3981C4.8252 16.3924 4.83089 16.3867 4.83657 16.381C4.84226 16.3753 4.84794 16.3696 4.85362 16.3639C4.85931 16.3583 4.86499 16.3526 4.87067 16.3469C4.87634 16.3412 4.88202 16.3355 4.8877 16.3299C4.89337 16.3242 4.89905 16.3185 4.90472 16.3128C4.91039 16.3072 4.91606 16.3015 4.92173 16.2958C4.9274 16.2902 4.93306 16.2845 4.93873 16.2788C4.9444 16.2732 4.95006 16.2675 4.95572 16.2618C4.96138 16.2562 4.96704 16.2505 4.9727 16.2449C4.97836 16.2392 4.98402 16.2335 4.98968 16.2279C4.99533 16.2222 5.00099 16.2166 5.00664 16.2109C5.01229 16.2053 5.01794 16.1996 5.02359 16.194C5.02924 16.1883 5.03489 16.1827 5.04054 16.177C5.04619 16.1714 5.05183 16.1657 5.05747 16.1601C5.06312 16.1544 5.06876 16.1488 5.0744 16.1432C5.08004 16.1375 5.08568 16.1319 5.09132 16.1262C5.09696 16.1206 5.1026 16.115 5.10823 16.1093C5.11387 16.1037 5.1195 16.0981 5.12513 16.0924C5.13077 16.0868 5.1364 16.0812 5.14203 16.0755C5.14766 16.0699 5.15329 16.0643 5.15891 16.0587C5.16454 16.053 5.17017 16.0474 5.17579 16.0418C5.18142 16.0362 5.18704 16.0305 5.19266 16.0249C5.19828 16.0193 5.2039 16.0137 5.20952 16.008C5.21514 16.0024 5.22076 15.9968 5.22638 15.9912C5.232 15.9856 5.23761 15.98 5.24323 15.9743C5.24884 15.9687 5.25446 15.9631 5.26007 15.9575C5.26568 15.9519 5.27129 15.9463 5.2769 15.9407C5.28251 15.9351 5.28812 15.9294 5.29373 15.9238C5.29934 15.9182 5.30494 15.9126 5.31055 15.907C5.31615 15.9014 5.32176 15.8958 5.32736 15.8902C5.33297 15.8846 5.33857 15.879 5.34417 15.8734C5.34977 15.8678 5.35537 15.8622 5.36097 15.8566C5.36657 15.851 5.37217 15.8454 5.37776 15.8398C5.38336 15.8342 5.38896 15.8286 5.39455 15.823C5.40015 15.8174 5.40574 15.8118 5.41134 15.8062C5.41693 15.8006 5.42252 15.795 5.42811 15.7895C5.4337 15.7839 5.43929 15.7783 5.44488 15.7727C5.45047 15.7671 5.45606 15.7615 5.46165 15.7559C5.46724 15.7503 5.47283 15.7447 5.47841 15.7392C5.484 15.7336 5.48958 15.728 5.49517 15.7224C5.50075 15.7168 5.50633 15.7112 5.51192 15.7057C5.5175 15.7001 5.52308 15.6945 5.52866 15.6889C5.53424 15.6833 5.53982 15.6777 5.5454 15.6722C5.55098 15.6666 5.55656 15.661 5.56214 15.6554C5.56772 15.6498 5.5733 15.6443 5.57887 15.6387C5.58445 15.6331 5.59002 15.6275 5.5956 15.622C5.60118 15.6164 5.60675 15.6108 5.61232 15.6052C5.6179 15.5997 5.62347 15.5941 5.62904 15.5885C5.63462 15.583 5.64019 15.5774 5.64576 15.5718C5.65133 15.5662 5.6569 15.5607 5.66247 15.5551C5.66804 15.5495 5.67361 15.544 5.67918 15.5384C5.68475 15.5328 5.69032 15.5273 5.69588 15.5217C5.70145 15.5161 5.70702 15.5105 5.71259 15.505C5.71815 15.4994 5.72372 15.4938 5.72928 15.4883C5.73485 15.4827 5.74041 15.4772 5.74598 15.4716C5.75154 15.466 5.75711 15.4605 5.76267 15.4549C5.76824 15.4493 5.7738 15.4438 5.77936 15.4382C5.78492 15.4326 5.79049 15.4271 5.79605 15.4215C5.80161 15.416 5.80717 15.4104 5.81273 15.4048C5.8183 15.3993 5.82386 15.3937 5.82942 15.3882C5.83498 15.3826 5.84054 15.377 5.8461 15.3715C5.85166 15.3659 5.85722 15.3604 5.86278 15.3548C5.86833 15.3492 5.87389 15.3437 5.87945 15.3381C5.88501 15.3326 5.89057 15.327 5.89613 15.3214C5.90168 15.3159 5.90724 15.3103 5.9128 15.3048C5.91836 15.2992 5.92391 15.2937 5.92947 15.2881C5.93503 15.2825 5.94059 15.277 5.94614 15.2714C5.9517 15.2659 5.95726 15.2603 5.96281 15.2548C5.96837 15.2492 5.97392 15.2436 5.97948 15.2381C5.98504 15.2325 5.99059 15.227 5.99615 15.2214C6.0017 15.2159 6.00726 15.2103 6.01281 15.2048C6.01837 15.1992 6.02393 15.1936 6.02948 15.1881C6.03504 15.1825 6.04059 15.177 6.04615 15.1714C6.0517 15.1659 6.05726 15.1603 6.06281 15.1548C6.06837 15.1492 6.07392 15.1436 6.07948 15.1381C6.08503 15.1325 6.09059 15.127 6.09614 15.1214C6.1017 15.1159 6.10725 15.1103 6.11281 15.1048C6.11836 15.0992 6.12392 15.0936 6.12947 15.0881C6.13503 15.0825 6.14058 15.077 6.14614 15.0714C6.1517 15.0659 6.15725 15.0603 6.16281 15.0548C6.16836 15.0492 6.17392 15.0436 6.17947 15.0381C6.18503 15.0325 6.19059 15.027 6.19614 15.0214C6.2017 15.0159 6.20726 15.0103 6.21281 15.0048C6.21837 14.9992 6.22393 14.9936 6.22948 14.9881C6.23504 14.9825 6.2406 14.977 6.24615 14.9714C6.25171 14.9659 6.25727 14.9603 6.26283 14.9547C6.26839 14.9492 6.27394 14.9436 6.2795 14.9381C6.28506 14.9325 6.29062 14.9269 6.29618 14.9214C6.30174 14.9158 6.3073 14.9103 6.31286 14.9047C6.31842 14.8992 6.32398 14.8936 6.32954 14.888C6.3351 14.8825 6.34066 14.8769 6.34622 14.8713C6.35178 14.8658 6.35734 14.8602 6.36291 14.8547C6.36847 14.8491 6.37403 14.8435 6.37959 14.838C6.38516 14.8324 6.39072 14.8268 6.39628 14.8213C6.40185 14.8157 6.40741 14.8102 6.41298 14.8046C6.41854 14.799 6.42411 14.7935 6.42967 14.7879C6.43524 14.7823 6.4408 14.7768 6.44637 14.7712C6.45194 14.7656 6.4575 14.7601 6.46307 14.7545C6.46864 14.7489 6.47421 14.7434 6.47978 14.7378C6.48534 14.7322 6.49091 14.7267 6.49648 14.7211C6.50205 14.7155 6.50762 14.7099 6.5132 14.7044C6.51877 14.6988 6.52434 14.6932 6.52991 14.6877C6.53548 14.6821 6.54106 14.6765 6.54663 14.6709C6.5522 14.6654 6.55778 14.6598 6.56335 14.6542C6.56893 14.6486 6.57451 14.6431 6.58008 14.6375C6.58566 14.6319 6.59124 14.6263 6.59681 14.6208C6.60239 14.6152 6.60797 14.6096 6.61355 14.604C6.61913 14.5984 6.62471 14.5929 6.63029 14.5873C6.63587 14.5817 6.64145 14.5761 6.64704 14.5705C6.65262 14.5649 6.6582 14.5594 6.66379 14.5538C6.66937 14.5482 6.67496 14.5426 6.68054 14.537C6.68613 14.5314 6.69172 14.5259 6.6973 14.5203C6.70289 14.5147 6.70848 14.5091 6.71407 14.5035C6.71966 14.4979 6.72525 14.4923 6.73084 14.4867C6.73643 14.4811 6.74203 14.4755 6.74762 14.4699C6.75321 14.4644 6.75881 14.4588 6.7644 14.4532C6.77 14.4476 6.77559 14.442 6.78119 14.4364C6.78679 14.4308 6.79239 14.4252 6.79798 14.4196C6.80358 14.414 6.80918 14.4084 6.81479 14.4028C6.82039 14.3972 6.82599 14.3916 6.83159 14.386C6.8372 14.3804 6.8428 14.3748 6.84841 14.3692C6.85401 14.3636 6.85962 14.358 6.86523 14.3523C6.87083 14.3467 6.87644 14.3411 6.88205 14.3355C6.88766 14.3299 6.89327 14.3243 6.89889 14.3187C6.9045 14.3131 6.91011 14.3075 6.91573 14.3018C6.92134 14.2962 6.92696 14.2906 6.93258 14.285C6.93819 14.2794 6.94381 14.2738 6.94943 14.2681C6.95505 14.2625 6.96067 14.2569 6.96629 14.2513C6.97192 14.2457 6.97754 14.24 6.98316 14.2344C6.98879 14.2288 6.99441 14.2232 7.00004 14.2175C7.00567 14.2119 7.0113 14.2063 7.01693 14.2006C7.02256 14.195 7.02819 14.1894 7.03382 14.1837C7.03945 14.1781 7.04509 14.1725 7.05072 14.1668C7.05636 14.1612 7.062 14.1556 7.06763 14.1499C7.07327 14.1443 7.07891 14.1387 7.08455 14.133C7.09019 14.1274 7.09584 14.1217 7.10148 14.1161C7.10712 14.1104 7.11277 14.1048 7.11842 14.0992C7.12406 14.0935 7.12971 14.0879 7.13536 14.0822C7.14101 14.0766 7.14666 14.0709 7.15232 14.0653C7.15797 14.0596 7.16362 14.0539 7.16928 14.0483C7.17493 14.0426 7.18059 14.037 7.18625 14.0313C7.19191 14.0257 7.19757 14.02 7.20323 14.0143C7.20889 14.0087 7.21456 14.003 7.22022 13.9973C7.22589 13.9917 7.23156 13.986 7.23723 13.9803C7.24289 13.9747 7.24856 13.969 7.25424 13.9633C7.25991 13.9577 7.26558 13.952 7.27126 13.9463C7.27693 13.9406 7.28261 13.935 7.28829 13.9293C7.29397 13.9236 7.29965 13.9179 7.30533 13.9122C7.31101 13.9066 7.3167 13.9009 7.32238 13.8952C7.32807 13.8895 7.33376 13.8838 7.33945 13.8781C7.34513 13.8724 7.35083 13.8667 7.35652 13.861C7.36221 13.8554 7.36791 13.8497 7.3736 13.844C7.3793 13.8383 7.385 13.8326 7.3907 13.8269C7.3964 13.8212 7.4021 13.8155 7.4078 13.8098C7.41351 13.8041 7.41921 13.7984 7.42492 13.7926C7.43063 13.7869 7.43634 13.7812 7.44205 13.7755C7.44776 13.7698 7.45348 13.7641 7.45919 13.7584C7.46491 13.7527 7.47063 13.7469 7.47635 13.7412C7.48206 13.7355 7.48779 13.7298 7.49351 13.7241C7.49923 13.7183 7.50496 13.7126 7.51069 13.7069C7.51641 13.7012 7.52214 13.6954 7.52787 13.6897C7.53361 13.684 7.53934 13.6782 7.54508 13.6725C7.55081 13.6668 7.55655 13.661 7.56229 13.6553C7.56803 13.6495 7.57377 13.6438 7.57952 13.6381C7.58526 13.6323 7.59101 13.6266 7.59675 13.6208C7.6025 13.6151 7.60825 13.6093 7.61401 13.6036C7.61976 13.5978 7.62551 13.5921 7.63127 13.5863C7.63703 13.5805 7.64279 13.5748 7.64855 13.569C7.65431 13.5633 7.66007 13.5575 7.66584 13.5517C7.67161 13.546 7.67737 13.5402 7.68314 13.5344C7.68891 13.5287 7.69469 13.5229 7.70046 13.5171C7.70624 13.5113 7.71201 13.5056 7.71779 13.4998C7.72357 13.494 7.72936 13.4882 7.73514 13.4824C7.74092 13.4766 7.74671 13.4709 7.7525 13.4651C7.75829 13.4593 7.76408 13.4535 7.76987 13.4477C7.77567 13.4419 7.78146 13.4361 7.78726 13.4303C7.79306 13.4245 7.79886 13.4187 7.80467 13.4129C7.81047 13.4071 7.81627 13.4013 7.82208 13.3955C7.82789 13.3897 7.8337 13.3839 7.83952 13.3781C7.84533 13.3722 7.85114 13.3664 7.85696 13.3606C7.86278 13.3548 7.8686 13.349 7.87442 13.3431C7.88025 13.3373 7.88607 13.3315 7.8919 13.3257C7.89773 13.3198 7.90356 13.314 7.90939 13.3082C7.91523 13.3023 7.92106 13.2965 7.9269 13.2907C7.93274 13.2848 7.93858 13.279 7.94443 13.2731C7.95027 13.2673 7.95612 13.2615 7.96197 13.2556C7.96781 13.2498 7.97367 13.2439 7.97952 13.238C7.98538 13.2322 7.99123 13.2263 7.99709 13.2205C8.00295 13.2146 8.00881 13.2088 8.01468 13.2029C8.02055 13.197 8.02641 13.1912 8.03228 13.1853C8.03815 13.1794 8.04403 13.1735 8.0499 13.1677C8.05578 13.1618 8.06166 13.1559 8.06754 13.15C8.07342 13.1441 8.07931 13.1383 8.08519 13.1324C8.09108 13.1265 8.09697 13.1206 8.10287 13.1147C8.10876 13.1088 8.11465 13.1029 8.12055 13.097C8.12645 13.0911 8.13235 13.0852 8.13826 13.0793C8.14416 13.0734 8.15007 13.0675 8.15598 13.0616C8.16189 13.0557 8.1678 13.0498 8.17372 13.0438C8.17964 13.0379 8.18555 13.032 8.19148 13.0261C8.1974 13.0202 8.20332 13.0142 8.20925 13.0083C8.21518 13.0024 8.22111 12.9965 8.22704 12.9905C8.23298 12.9846 8.23891 12.9787 8.24486 12.9727C8.2508 12.9668 8.25674 12.9608 8.26268 12.9549C8.26863 12.9489 8.27458 12.943 8.28053 12.937C8.28648 12.9311 8.29244 12.9251 8.2984 12.9192C8.30436 12.9132 8.31032 12.9073 8.31628 12.9013C8.32225 12.8953 8.32821 12.8894 8.33419 12.8834C8.34016 12.8774 8.34613 12.8714 8.35211 12.8655C8.35808 12.8595 8.36407 12.8535 8.37005 12.8475C8.37603 12.8415 8.38202 12.8355 8.38801 12.8296C8.394 12.8236 8.39999 12.8176 8.40599 12.8116C8.41198 12.8056 8.41798 12.7996 8.42399 12.7936C8.42999 12.7876 8.436 12.7816 8.44201 12.7756C8.44802 12.7696 8.45403 12.7635 8.46004 12.7575C8.46606 12.7515 8.47208 12.7455 8.4781 12.7395C8.48413 12.7334 8.49015 12.7274 8.49618 12.7214C8.50221 12.7154 8.50824 12.7093 8.51428 12.7033C8.52032 12.6973 8.52636 12.6912 8.5324 12.6852C8.53844 12.6791 8.54449 12.6731 8.55054 12.667C8.55659 12.661 8.56264 12.6549 8.5687 12.6489C8.57476 12.6428 8.58082 12.6368 8.58688 12.6307C8.59294 12.6246 8.59901 12.6186 8.60508 12.6125C8.61115 12.6064 8.61723 12.6003 8.6233 12.5943C8.62938 12.5882 8.63546 12.5821 8.64155 12.576C8.64763 12.5699 8.65372 12.5638 8.65981 12.5578C8.66591 12.5517 8.672 12.5456 8.6781 12.5395C8.6842 12.5334 8.6903 12.5273 8.69641 12.5212C8.70252 12.5151 8.70863 12.5089 8.71474 12.5028C8.72085 12.4967 8.72697 12.4906 8.73309 12.4845C8.73921 12.4784 8.74534 12.4722 8.75147 12.4661C8.75759 12.46 8.76373 12.4538 8.76986 12.4477C8.776 12.4416 8.78214 12.4354 8.78828 12.4293C8.79442 12.4231 8.80057 12.417 8.80672 12.4108C8.81287 12.4047 8.81903 12.3985 8.82519 12.3924C8.83134 12.3862 8.83751 12.3801 8.84367 12.3739C8.84984 12.3677 8.85601 12.3616 8.86218 12.3554C8.86835 12.3492 8.87453 12.343 8.88071 12.3369C8.8869 12.3307 8.89308 12.3245 8.89927 12.3183C8.90546 12.3121 8.91165 12.3059 8.91785 12.2997C8.92405 12.2935 8.93025 12.2873 8.93645 12.2811C8.94266 12.2749 8.94886 12.2687 8.95508 12.2625C8.96129 12.2563 8.96751 12.2501 8.97373 12.2438C8.97995 12.2376 8.98617 12.2314 8.9924 12.2252C8.99863 12.2189 9.00486 12.2127 9.0111 12.2065C9.01733 12.2002 9.02358 12.194 9.02982 12.1877C9.03607 12.1815 9.04231 12.1753 9.04857 12.169C9.05482 12.1627 9.06108 12.1565 9.06734 12.1502C9.0736 12.144 9.07986 12.1377 9.08613 12.1314C9.0924 12.1252 9.09868 12.1189 9.10495 12.1126C9.11123 12.1063 9.11751 12.1001 9.1238 12.0938C9.13008 12.0875 9.13637 12.0812 9.14267 12.0749C9.14896 12.0686 9.15526 12.0623 9.16156 12.056C9.16787 12.0497 9.17417 12.0434 9.18048 12.0371C9.1868 12.0308 9.19311 12.0245 9.19943 12.0181C9.20575 12.0118 9.21208 12.0055 9.2184 11.9992C9.22473 11.9928 9.23106 11.9865 9.2374 11.9802C9.24374 11.9738 9.25008 11.9675 9.25642 11.9611C9.26277 11.9548 9.26912 11.9484 9.27547 11.9421C9.28183 11.9357 9.28819 11.9294 9.29455 11.923C9.30091 11.9167 9.30728 11.9103 9.31365 11.9039C9.32002 11.8975 9.3264 11.8912 9.33278 11.8848C9.33916 11.8784 9.34555 11.872 9.35194 11.8656C9.35833 11.8592 9.36472 11.8528 9.37112 11.8465C9.37752 11.8401 9.38392 11.8336 9.39033 11.8272C9.39673 11.8208 9.40315 11.8144 9.40956 11.808C9.41598 11.8016 9.4224 11.7952 9.42883 11.7887C9.43525 11.7823 9.44168 11.7759 9.44812 11.7695C9.45455 11.763 9.46099 11.7566 9.46743 11.7501C9.47388 11.7437 9.48033 11.7372 9.48678 11.7308C9.49323 11.7243 9.49969 11.7179 9.50615 11.7114C9.51262 11.705 9.51908 11.6985 9.52556 11.692C9.53203 11.6855 9.5385 11.6791 9.54498 11.6726C9.55147 11.6661 9.55795 11.6596 9.56444 11.6531C9.57093 11.6466 9.57743 11.6401 9.58393 11.6336C9.59043 11.6271 9.59693 11.6206 9.60344 11.6141C9.60995 11.6076 9.61647 11.6011 9.62299 11.5946C9.62951 11.5881 9.63603 11.5815 9.64256 11.575C9.64909 11.5685 9.65562 11.5619 9.66216 11.5554C9.6687 11.5489 9.67524 11.5423 9.68179 11.5358C9.68834 11.5292 9.69489 11.5227 9.70145 11.5161C9.70801 11.5096 9.71457 11.503 9.72114 11.4964C9.7277 11.4899 9.73428 11.4833 9.74085 11.4767C9.74743 11.4701 9.75401 11.4636 9.7606 11.457C9.76719 11.4504 9.77378 11.4438 9.78038 11.4372C9.78698 11.4306 9.79358 11.424 9.80019 11.4174C9.80679 11.4108 9.81341 11.4042 9.82002 11.3975C9.82664 11.3909 9.83326 11.3843 9.83989 11.3777C9.84652 11.371 9.85315 11.3644 9.85979 11.3578C9.86643 11.3511 9.87307 11.3445 9.87972 11.3379C9.88636 11.3312 9.89302 11.3245 9.89968 11.3179C9.90633 11.3112 9.913 11.3046 9.91967 11.2979C9.92633 11.2912 9.93301 11.2846 9.93969 11.2779C9.94637 11.2712 9.95305 11.2645 9.95974 11.2578C9.96643 11.2511 9.97312 11.2444 9.97982 11.2377C9.98652 11.231 9.99323 11.2243 9.99994 11.2176C10.0066 11.2109 10.0134 11.2042 10.0201 11.1975C10.0268 11.1908 10.0335 11.184 10.0403 11.1773C10.047 11.1706 10.0537 11.1638 10.0605 11.1571C10.0672 11.1504 10.074 11.1436 10.0807 11.1369C10.0875 11.1301 10.0942 11.1233 10.101 11.1166C10.1077 11.1098 10.1145 11.1031 10.1213 11.0963C10.1281 11.0895 10.1348 11.0827 10.1416 11.0759C10.1484 11.0692 10.1552 11.0624 10.162 11.0556C10.1688 11.0488 10.1756 11.042 10.1824 11.0352C10.1892 11.0284 10.196 11.0216 10.2028 11.0147C10.2097 11.0079 10.2165 11.0011 10.2233 10.9943C10.2301 10.9874 10.237 10.9806 10.2438 10.9738C10.2506 10.9669 10.2575 10.9601 10.2643 10.9532C10.2712 10.9464 10.278 10.9395 10.2849 10.9327C10.2918 10.9258 10.2986 10.9189 10.3055 10.9121C10.3124 10.9052 10.3193 10.8983 10.3261 10.8914C10.333 10.8845 10.3399 10.8776 10.3468 10.8708C10.3537 10.8639 10.3606 10.857 10.3675 10.85C10.3744 10.8431 10.3813 10.8362 10.3883 10.8293C10.3952 10.8224 10.4021 10.8155 10.409 10.8085C10.416 10.8016 10.4229 10.7947 10.4298 10.7877C10.4368 10.7808 10.4437 10.7738 10.4507 10.7669C10.4576 10.7599 10.4646 10.753 10.4715 10.746C10.4785 10.7391 10.4855 10.7321 10.4925 10.7251C10.4994 10.7181 10.5064 10.7112 10.5134 10.7042C10.5204 10.6972 10.5274 10.6902 10.5344 10.6832C10.5414 10.6762 10.5484 10.6692 10.5554 10.6622C10.5624 10.6552 10.5694 10.6481 10.5765 10.6411C10.5835 10.6341 10.5905 10.6271 10.5975 10.62C10.6046 10.613 10.6116 10.606 10.6187 10.5989C10.6257 10.5919 10.6328 10.5848 10.6398 10.5778C10.6469 10.5707 10.6539 10.5636 10.661 10.5566C10.6681 10.5495 10.6752 10.5424 10.6822 10.5353C10.6893 10.5282 10.6964 10.5212 10.7035 10.5141C10.7106 10.507 10.7177 10.4999 10.7248 10.4928C10.7319 10.4857 10.739 10.4785 10.7461 10.4714L10.2747 10Z" fill="#0A0D0E"/>
</svg>
