<svg width="654" height="289" viewBox="0 0 654 289" fill="none" xmlns="http://www.w3.org/2000/svg">
<path d="M354.096 288.092C349.042 288.092 343.988 287.37 339.655 285.926C335.684 284.121 330.991 280.872 329.547 275.456C334.962 279.788 341.099 281.955 350.847 281.594C414.025 281.594 458.791 191.339 492.366 137.909C501.391 123.468 511.139 106.861 522.691 90.2543H502.474L506.445 85.2H526.301C548.685 53.4305 575.761 23.466 609.335 13.3575C613.307 11.9135 619.444 11.1914 625.942 11.1914C631.719 11.1914 637.856 11.9135 642.549 13.7185C646.881 15.5236 651.214 18.7728 653.019 24.188C647.603 19.8558 641.105 18.0507 631.358 18.0507C593.451 18.0507 566.013 54.5135 546.157 85.2H573.956L569.985 90.2543H542.908C532.439 106.139 523.052 122.385 508.251 145.851C482.618 185.563 428.466 268.236 371.064 285.565C367.093 287.009 360.594 288.092 354.096 288.092Z" fill="white"/>
<path d="M362.958 200.726C351.405 200.726 347.073 194.949 347.073 186.646C347.073 178.342 351.044 168.234 356.46 158.486C369.817 135.381 391.839 110.471 406.641 96.0304C419.999 82.6728 438.411 80.1456 438.411 80.1456C427.58 92.0592 407.724 116.247 389.673 141.158C386.063 146.212 365.846 175.454 365.846 185.924C365.846 188.451 366.929 189.895 370.178 189.534C382.814 188.451 414.223 149.1 427.941 132.854C435.884 123.829 450.324 105.056 460.794 93.1423C471.985 80.1456 489.314 80.1456 489.314 80.1456C481.733 89.8931 437.689 141.519 424.692 177.62C422.887 181.953 422.165 185.202 422.165 187.729C422.165 192.422 425.053 193.866 427.941 193.866C441.299 193.866 464.043 165.707 468.375 160.653C469.458 160.653 469.819 161.736 469.819 162.819C469.819 164.624 469.458 166.429 468.375 167.873C457.184 180.87 438.411 200.726 422.165 200.726C410.251 200.726 405.919 194.227 405.919 185.563C405.919 177.259 409.89 166.79 414.584 158.125C403.392 169.678 380.287 200.726 362.958 200.726Z" fill="white"/>
<path d="M249.403 201.087C240.738 201.087 236.045 195.671 236.045 185.924C236.045 174.371 242.543 157.764 256.262 139.714C275.035 115.886 315.108 79.4236 347.599 79.4236C354.82 79.4236 356.986 82.3117 358.069 84.4778C359.152 86.2829 357.708 87.366 356.986 87.0049C356.264 86.6439 353.376 86.2829 351.21 86.2829C333.881 86.2829 308.248 104.695 285.143 131.049C268.898 149.461 257.706 168.234 254.457 179.786C254.096 181.231 253.735 183.036 253.735 184.841C253.735 187.729 254.818 189.895 257.706 189.895C260.955 189.895 266.731 187.368 275.757 179.425C304.638 154.876 333.159 106.139 357.708 90.2541C372.871 80.1456 377.203 80.5066 381.174 80.1456C377.203 84.8388 357.347 110.11 349.043 121.663C335.686 140.797 317.996 165.707 313.664 177.981C312.581 181.592 311.859 184.48 311.859 187.007C311.859 190.978 313.664 192.783 316.552 192.783C320.884 192.783 327.382 188.812 333.52 183.758C341.462 177.259 348.321 170.039 356.264 160.653C357.347 160.653 357.708 161.736 357.708 162.819C357.708 164.624 357.347 166.429 356.264 167.873C350.126 175.093 340.379 184.841 331.715 191.339C325.216 196.754 316.552 201.087 308.97 201.087C297.779 201.087 294.169 195.31 294.169 187.007C294.169 177.62 299.223 165.346 304.638 155.237C298.14 163.18 287.309 175.454 279.728 182.675C269.259 192.422 259.872 201.087 249.403 201.087Z" fill="white"/>
<path d="M191.626 202.17C179.712 202.17 175.38 195.671 175.38 186.646C175.38 178.704 178.629 168.956 184.044 159.57C193.792 142.602 217.619 114.804 240.363 90.2543H216.175L220.146 85.2001H245.056C258.414 71.1204 270.689 58.4848 278.631 50.5424C299.57 29.6033 318.704 18.0508 329.534 18.0508C317.621 28.5203 287.656 58.1238 262.746 85.2001H287.656L283.685 90.2543H258.414C249.027 100.724 241.085 110.11 235.309 118.053C212.565 149.1 198.485 168.234 194.153 178.343C192.348 182.675 191.626 185.924 191.626 188.451C191.626 193.144 194.153 195.31 198.124 195.31C201.373 195.31 205.344 194.227 209.677 191.7C221.59 185.202 234.948 170.039 242.89 160.653C243.973 160.653 244.334 161.736 244.334 162.819C244.334 164.624 243.973 166.429 242.89 167.873C224.478 189.173 209.677 202.17 191.626 202.17Z" fill="white"/>
<path d="M93.1425 259.211C68.5933 259.211 46.5713 244.409 41.517 216.972C12.2746 209.029 0 185.202 0 156.321C0 101.446 43.3221 30.3255 106.139 30.3255C135.743 30.3255 146.573 54.8747 146.573 77.9798C146.573 82.673 145.851 87.3663 145.129 92.0595C150.905 89.1714 157.043 86.2832 163.18 83.7561L168.234 81.59C176.538 61.734 185.202 42.6001 196.755 25.9933C206.141 12.6356 220.221 0 236.828 0C251.629 0 257.406 7.58138 257.406 16.9678C257.406 43.6831 217.333 65.3442 187.729 79.0629C173.288 122.385 160.653 168.595 124.19 197.838C105.778 212.639 83.034 219.86 63.5391 219.86C60.2899 219.86 57.0408 219.499 54.1526 219.138C57.7628 238.633 69.3154 254.156 94.9476 254.156C102.529 254.156 108.666 252.351 117.331 246.575C117.331 246.575 117.692 246.214 118.053 246.214C118.775 246.214 119.136 247.297 119.136 248.38C119.136 253.795 103.973 259.211 93.1425 259.211ZM190.256 71.8425C218.055 58.4849 249.824 38.9899 249.824 17.3289C249.824 10.8305 247.297 4.69324 238.994 4.69324C224.914 4.69324 213 20.578 206.863 31.7696C200.365 44.0442 194.949 57.7628 190.256 71.8425ZM40.795 211.556C40.434 209.39 40.434 206.863 40.434 204.697C40.434 158.487 82.312 123.468 135.021 96.7527C136.465 91.3375 137.187 85.5612 137.187 79.7849C137.187 59.2069 129.605 35.3797 105.056 35.3797C54.8747 35.3797 14.8017 107.944 14.8017 160.292C14.8017 184.841 21.6611 205.058 40.795 211.556ZM53.4306 213.722H54.8747C70.7595 213.722 91.6985 206.141 114.804 181.953C138.631 157.043 151.627 122.746 164.985 89.1714L142.963 100.724C133.938 130.327 109.388 159.209 84.4781 177.621C83.034 178.704 81.229 179.426 79.7849 179.426C78.7018 179.426 77.9798 179.065 77.9798 178.343C77.9798 177.621 77.9798 177.26 78.7018 176.538C100.002 160.653 123.107 135.021 132.493 106.5C91.3374 130.688 53.0696 164.624 53.0696 205.058C53.0696 207.946 53.0696 210.834 53.4306 213.722Z" fill="white"/>
</svg>
