<svg width="24" height="24" viewBox="0 0 24 24" fill="none" xmlns="http://www.w3.org/2000/svg">
<path fill-rule="evenodd" clip-rule="evenodd" d="M12.5055 1.65002H11.5867V5.17502H12.5055V1.65002ZM12.4492 18.8063H11.5305V22.3313H12.4492V18.8063ZM22.4055 11.325H18.8805V12.2438H22.4055V11.325ZM5.19297 11.2688H1.66797V12.2063H5.19297V11.2688ZM3.44922 6.11252L2.99922 6.93752L6.09297 8.64377L6.54297 7.83752L3.44922 6.11252ZM7.49922 2.66252L6.71172 3.15002L8.58672 6.15002L9.35547 5.66252L7.49922 2.66252ZM15.8992 17.5688L15.093 18.0375L16.8555 21.0938L17.6617 20.625L15.8992 17.5688ZM18.243 14.7563L17.793 15.5625L20.868 17.2875L21.3367 16.4625L18.243 14.7563ZM6.46797 20.6813L7.29297 21.1313L8.99922 18.0563L8.19297 17.6063L6.46797 20.6813ZM2.69922 16.425L3.18672 17.2125L6.18672 15.3375L5.69922 14.5688L2.69922 16.425ZM17.6617 8.13752L18.1305 8.94377L21.1867 7.18127L20.718 6.37502L17.6617 8.13752ZM14.9617 5.83127L15.768 6.30002L17.4742 3.20627L16.668 2.75627L14.9617 5.83127Z" fill="white"/>
<circle cx="12.0371" cy="11.9906" r="5.17831" stroke="white" stroke-width="0.705882"/>
</svg>
