<svg width="19" height="19" viewBox="0 0 19 19" fill="none" xmlns="http://www.w3.org/2000/svg">
<path d="M8.66667 14.1027V2.56933L5.559 5.677L4.61533 4.718L9.33333 0L14.0513 4.718L13.1077 5.677L10 2.56933V14.1027H8.66667ZM2.154 18.6667C1.54022 18.6667 1.02778 18.4611 0.616667 18.05C0.205556 17.6389 0 17.1264 0 16.5127V13.282H1.33333V16.5127C1.33333 16.718 1.41878 16.9061 1.58967 17.077C1.76056 17.2479 1.94867 17.3333 2.154 17.3333H16.5127C16.718 17.3333 16.9061 17.2479 17.077 17.077C17.2479 16.9061 17.3333 16.718 17.3333 16.5127V13.282H18.6667V16.5127C18.6667 17.1264 18.4611 17.6389 18.05 18.05C17.6389 18.4611 17.1264 18.6667 16.5127 18.6667H2.154Z" fill="#1C1B1F"/>
</svg>
