<svg width="49" height="57" viewBox="0 0 49 57" fill="none" xmlns="http://www.w3.org/2000/svg">
<path d="M36.8 56.1667C44.3617 27.0804 48.1426 11.4506 48.1426 9.27753C48.1426 7.10442 47.2184 5.01489 45.37 3.00893C43.3535 1.00298 40.9169 0 38.0603 0C35.2037 0 32.7671 1.00298 30.7507 3.00893C28.7342 5.01489 27.726 7.43875 27.726 10.2805C27.726 12.9551 28.8182 15.2954 31.0027 17.3013C33.0192 19.3073 35.3717 20.3103 38.0603 20.3103H38.8165L33.5233 56.1667H36.8ZM9.07376 56.1667C16.6355 27.0804 20.4163 11.4506 20.4163 9.27753C20.4163 7.10442 19.4921 5.01489 17.6437 3.00893C15.6272 1.00298 13.1907 0 10.334 0C7.47741 0 5.04086 1.00298 3.02441 3.00893C1.00795 5.01489 -0.000278473 7.43875 -0.000278473 10.2805C-0.000278473 12.9551 1.09196 15.2954 3.27645 17.3013C5.29291 19.3073 7.64544 20.3103 10.334 20.3103H11.0902L5.79703 56.1667H9.07376Z" fill="#BABBB7" fill-opacity="0.25"/>
</svg>
